<?xml version="1.0" encoding="UTF-8" standalone="no"?>
<!DOCTYPE svg PUBLIC "-//W3C//DTD SVG 1.1//EN"
 "http://www.w3.org/Graphics/SVG/1.1/DTD/svg11.dtd">
<!-- Generated by graphviz version 2.40.1 (20161225.0304)
 -->
<!-- Title: calculator Pages: 1 -->
<svg width="762pt" height="1195pt"
 viewBox="0.00 0.00 762.00 1194.50" xmlns="http://www.w3.org/2000/svg" xmlns:xlink="http://www.w3.org/1999/xlink">
<g id="graph0" class="graph" transform="scale(1 1) rotate(0) translate(4 1190.5)">
<title>calculator</title>
<polygon fill="#ffffff" stroke="transparent" points="-4,4 -4,-1190.5 758,-1190.5 758,4 -4,4"/>
<g id="clust3" class="cluster">
<title>cluster_operandObservable</title>
<polygon fill="none" stroke="#000000" points="8,-439.25 8,-952.5 524,-952.5 524,-439.25 8,-439.25"/>
<text text-anchor="middle" x="266" y="-937.3" font-family="Times,serif" font-size="14.00" fill="#000000">operandOpservable</text>
</g>
<g id="clust11" class="cluster">
<title>cluster_subscribe</title>
<polygon fill="none" stroke="#000000" points="532,-8 532,-491.25 746,-491.25 746,-8 532,-8"/>
</g>
<g id="clust1" class="cluster">
<title>cluster_buttonsObservable</title>
<polygon fill="none" stroke="#000000" points="213,-960.5 213,-1178.5 532,-1178.5 532,-960.5 213,-960.5"/>
<text text-anchor="middle" x="372.5" y="-1163.3" font-family="Times,serif" font-size="14.00" fill="#000000">buttonsObservable</text>
</g>
<!-- buttonsObservable.buttonsOb -->
<g id="node1" class="node">
<title>buttonsObservable.buttonsOb</title>
<ellipse fill="none" stroke="#000000" cx="280" cy="-1130.5" rx="59.4599" ry="18"/>
<text text-anchor="middle" x="280" y="-1126.3" font-family="Times,serif" font-size="14.00" fill="#000000">from(buttons)</text>
</g>
<!-- buttonsObservable.zip -->
<g id="node3" class="node">
<title>buttonsObservable.zip</title>
<ellipse fill="none" stroke="#000000" cx="360" cy="-1058.5" rx="27" ry="18"/>
<text text-anchor="middle" x="360" y="-1054.3" font-family="Times,serif" font-size="14.00" fill="#000000">zip</text>
</g>
<!-- buttonsObservable.buttonsOb&#45;&gt;buttonsObservable.zip -->
<g id="edge1" class="edge">
<title>buttonsObservable.buttonsOb&#45;&gt;buttonsObservable.zip</title>
<path fill="none" stroke="#000000" stroke-dasharray="5,2" d="M298.9589,-1113.437C310.1781,-1103.3397 324.4846,-1090.4639 336.4268,-1079.7158"/>
<polygon fill="#000000" stroke="#000000" points="338.7854,-1082.3019 343.877,-1073.0107 334.1026,-1077.0989 338.7854,-1082.3019"/>
</g>
<!-- buttonsObservable.buttonsConfigOb -->
<g id="node2" class="node">
<title>buttonsObservable.buttonsConfigOb</title>
<ellipse fill="none" stroke="#000000" cx="441" cy="-1130.5" rx="83.1235" ry="18"/>
<text text-anchor="middle" x="441" y="-1126.3" font-family="Times,serif" font-size="14.00" fill="#000000">from(buttonsConfig)</text>
</g>
<!-- buttonsObservable.buttonsConfigOb&#45;&gt;buttonsObservable.zip -->
<g id="edge2" class="edge">
<title>buttonsObservable.buttonsConfigOb&#45;&gt;buttonsObservable.zip</title>
<path fill="none" stroke="#000000" stroke-dasharray="5,2" d="M420.9775,-1112.7022C409.7866,-1102.7548 395.7649,-1090.291 383.9898,-1079.8243"/>
<polygon fill="#000000" stroke="#000000" points="386.0586,-1076.9803 376.2592,-1072.9526 381.408,-1082.2122 386.0586,-1076.9803"/>
</g>
<!-- buttonsObservable.mergeAll -->
<g id="node4" class="node">
<title>buttonsObservable.mergeAll</title>
<polygon fill="none" stroke="#000000" points="394.1241,-1004.5 325.8759,-1004.5 325.8759,-968.5 394.1241,-968.5 394.1241,-1004.5"/>
<text text-anchor="middle" x="360" y="-982.3" font-family="Times,serif" font-size="14.00" fill="#000000">mergeAll</text>
</g>
<!-- buttonsObservable.zip&#45;&gt;buttonsObservable.mergeAll -->
<g id="edge3" class="edge">
<title>buttonsObservable.zip&#45;&gt;buttonsObservable.mergeAll</title>
<path fill="none" stroke="#000000" d="M360,-1040.3314C360,-1032.631 360,-1023.4743 360,-1014.9166"/>
<polygon fill="#000000" stroke="#000000" points="363.5001,-1014.9132 360,-1004.9133 356.5001,-1014.9133 363.5001,-1014.9132"/>
</g>
<!-- buttonsObservable -->
<g id="node5" class="node">
<title>buttonsObservable</title>
<polygon fill="none" stroke="#000000" points="391.2558,-893.0442 391.2558,-907.9558 372.9466,-918.5 347.0534,-918.5 328.7442,-907.9558 328.7442,-893.0442 347.0534,-882.5 372.9466,-882.5 391.2558,-893.0442"/>
<polygon fill="none" stroke="#000000" points="395.2712,-890.7363 395.2712,-910.2637 374.0238,-922.5 345.9762,-922.5 324.7288,-910.2637 324.7288,-890.7363 345.9762,-878.5 374.0238,-878.5 395.2712,-890.7363"/>
<text text-anchor="middle" x="360" y="-896.3" font-family="Times,serif" font-size="14.00" fill="#000000">share</text>
</g>
<!-- buttonsObservable.mergeAll&#45;&gt;buttonsObservable -->
<g id="edge4" class="edge">
<title>buttonsObservable.mergeAll&#45;&gt;buttonsObservable</title>
<path fill="none" stroke="#000000" d="M360,-968.2616C360,-957.9652 360,-944.7954 360,-932.809"/>
<polygon fill="#000000" stroke="#000000" points="363.5001,-932.682 360,-922.6821 356.5001,-932.6821 363.5001,-932.682"/>
</g>
<!-- resetFnOb.filter -->
<g id="node6" class="node">
<title>resetFnOb.filter</title>
<polygon fill="none" stroke="#000000" points="117.7981,-842.5 16.2019,-842.5 16.2019,-806.5 117.7981,-806.5 117.7981,-842.5"/>
<text text-anchor="middle" x="67" y="-820.3" font-family="Times,serif" font-size="14.00" fill="#000000">filter(+,&#45;,×,÷,=)</text>
</g>
<!-- buttonsObservable&#45;&gt;resetFnOb.filter -->
<g id="edge5" class="edge">
<title>buttonsObservable&#45;&gt;resetFnOb.filter</title>
<path fill="none" stroke="#000000" d="M324.5653,-892.3364C280.5712,-882.0653 203.0261,-863.5192 127.8999,-842.9653"/>
<polygon fill="#000000" stroke="#000000" points="128.369,-839.4643 117.7988,-840.1852 126.5115,-846.2134 128.369,-839.4643"/>
</g>
<!-- clearFnOb.filter -->
<g id="node8" class="node">
<title>clearFnOb.filter</title>
<polygon fill="none" stroke="#000000" points="196.6036,-842.5 135.3964,-842.5 135.3964,-806.5 196.6036,-806.5 196.6036,-842.5"/>
<text text-anchor="middle" x="166" y="-820.3" font-family="Times,serif" font-size="14.00" fill="#000000">filter(C)</text>
</g>
<!-- buttonsObservable&#45;&gt;clearFnOb.filter -->
<g id="edge7" class="edge">
<title>buttonsObservable&#45;&gt;clearFnOb.filter</title>
<path fill="none" stroke="#000000" d="M327.3665,-889.0863C297.7808,-878.5632 252.8264,-862.1396 205.957,-842.7769"/>
<polygon fill="#000000" stroke="#000000" points="207.1388,-839.4778 196.5616,-838.8661 204.4487,-845.9403 207.1388,-839.4778"/>
</g>
<!-- percentFnOb.filter -->
<g id="node10" class="node">
<title>percentFnOb.filter</title>
<polygon fill="none" stroke="#000000" points="277.9292,-842.5 214.0708,-842.5 214.0708,-806.5 277.9292,-806.5 277.9292,-842.5"/>
<text text-anchor="middle" x="246" y="-820.3" font-family="Times,serif" font-size="14.00" fill="#000000">filter(%)</text>
</g>
<!-- buttonsObservable&#45;&gt;percentFnOb.filter -->
<g id="edge9" class="edge">
<title>buttonsObservable&#45;&gt;percentFnOb.filter</title>
<path fill="none" stroke="#000000" d="M335.5441,-884.1961C319.8016,-873.701 299.0782,-859.8855 281.5329,-848.1886"/>
<polygon fill="#000000" stroke="#000000" points="283.4728,-845.2754 273.2108,-842.6405 279.5898,-851.0997 283.4728,-845.2754"/>
</g>
<!-- pointFnOb.filter -->
<g id="node12" class="node">
<title>pointFnOb.filter</title>
<polygon fill="none" stroke="#000000" points="350.7663,-842.5 295.2337,-842.5 295.2337,-806.5 350.7663,-806.5 350.7663,-842.5"/>
<text text-anchor="middle" x="323" y="-820.3" font-family="Times,serif" font-size="14.00" fill="#000000">filter(.)</text>
</g>
<!-- buttonsObservable&#45;&gt;pointFnOb.filter -->
<g id="edge11" class="edge">
<title>buttonsObservable&#45;&gt;pointFnOb.filter</title>
<path fill="none" stroke="#000000" d="M349.0989,-878.1086C345.134,-869.9645 340.6055,-860.6627 336.4462,-852.1191"/>
<polygon fill="#000000" stroke="#000000" points="339.4809,-850.3565 331.9567,-842.8975 333.1871,-853.4206 339.4809,-850.3565"/>
</g>
<!-- signFnOb.filter -->
<g id="node14" class="node">
<title>signFnOb.filter</title>
<polygon fill="none" stroke="#000000" points="427.9509,-842.5 368.0491,-842.5 368.0491,-806.5 427.9509,-806.5 427.9509,-842.5"/>
<text text-anchor="middle" x="398" y="-820.3" font-family="Times,serif" font-size="14.00" fill="#000000">filter(±)</text>
</g>
<!-- buttonsObservable&#45;&gt;signFnOb.filter -->
<g id="edge13" class="edge">
<title>buttonsObservable&#45;&gt;signFnOb.filter</title>
<path fill="none" stroke="#000000" d="M371.1957,-878.1086C375.3116,-869.8769 380.0187,-860.4625 384.3281,-851.8438"/>
<polygon fill="#000000" stroke="#000000" points="387.4596,-853.407 388.8013,-842.8975 381.1986,-850.2765 387.4596,-853.407"/>
</g>
<!-- numberFnOb.filter -->
<g id="node16" class="node">
<title>numberFnOb.filter</title>
<polygon fill="none" stroke="#000000" points="516.429,-842.5 445.571,-842.5 445.571,-806.5 516.429,-806.5 516.429,-842.5"/>
<text text-anchor="middle" x="481" y="-820.3" font-family="Times,serif" font-size="14.00" fill="#000000">filter(0&#45;9)</text>
</g>
<!-- buttonsObservable&#45;&gt;numberFnOb.filter -->
<g id="edge15" class="edge">
<title>buttonsObservable&#45;&gt;numberFnOb.filter</title>
<path fill="none" stroke="#000000" d="M385.0713,-884.7528C401.923,-874.1682 424.4371,-860.0271 443.419,-848.1046"/>
<polygon fill="#000000" stroke="#000000" points="445.5286,-850.9127 452.1352,-842.63 441.8054,-844.985 445.5286,-850.9127"/>
</g>
<!-- enter.filter -->
<g id="node22" class="node">
<title>enter.filter</title>
<polygon fill="none" stroke="#000000" points="614.6621,-483.25 555.3379,-483.25 555.3379,-447.25 614.6621,-447.25 614.6621,-483.25"/>
<text text-anchor="middle" x="585" y="-461.05" font-family="Times,serif" font-size="14.00" fill="#000000">filter(=)</text>
</g>
<!-- buttonsObservable&#45;&gt;enter.filter -->
<g id="edge26" class="edge">
<title>buttonsObservable&#45;&gt;enter.filter</title>
<path fill="none" stroke="#000000" d="M395.2845,-896.9799C432.2822,-891.4812 489.8325,-877.5414 525,-842.5 555.0728,-812.535 557,-794.9532 557,-752.5 557,-752.5 557,-752.5 557,-680.5 557,-612.8701 570.7603,-534.2788 578.9882,-493.3305"/>
<polygon fill="#000000" stroke="#000000" points="582.467,-493.7887 581.0477,-483.2893 575.6098,-492.3822 582.467,-493.7887"/>
</g>
<!-- operator.filter -->
<g id="node24" class="node">
<title>operator.filter</title>
<polygon fill="none" stroke="#000000" points="730.4032,-483.25 639.5968,-483.25 639.5968,-447.25 730.4032,-447.25 730.4032,-483.25"/>
<text text-anchor="middle" x="685" y="-461.05" font-family="Times,serif" font-size="14.00" fill="#000000">filter(+,&#45;,×,÷)</text>
</g>
<!-- buttonsObservable&#45;&gt;operator.filter -->
<g id="edge28" class="edge">
<title>buttonsObservable&#45;&gt;operator.filter</title>
<path fill="none" stroke="#000000" d="M395.3885,-897.7431C469.6616,-889.8284 635,-860.123 635,-752.5 635,-752.5 635,-752.5 635,-680.5 635,-611.5334 659.6549,-533.2854 674.3389,-492.7983"/>
<polygon fill="#000000" stroke="#000000" points="677.6482,-493.9404 677.8362,-483.3472 671.0832,-491.511 677.6482,-493.9404"/>
</g>
<!-- resetFnOb -->
<g id="node7" class="node">
<title>resetFnOb</title>
<polygon fill="none" stroke="#000000" points="107.1787,-770.5 52.8213,-770.5 52.8213,-734.5 107.1787,-734.5 107.1787,-770.5"/>
<text text-anchor="middle" x="80" y="-748.3" font-family="Times,serif" font-size="14.00" fill="#000000">mapTo</text>
</g>
<!-- resetFnOb.filter&#45;&gt;resetFnOb -->
<g id="edge6" class="edge">
<title>resetFnOb.filter&#45;&gt;resetFnOb</title>
<path fill="none" stroke="#000000" d="M70.2804,-806.3314C71.6708,-798.631 73.3241,-789.4743 74.8692,-780.9166"/>
<polygon fill="#000000" stroke="#000000" points="78.3428,-781.3761 76.6754,-770.9133 71.4542,-780.1322 78.3428,-781.3761"/>
</g>
<!-- operandObservable.merge -->
<g id="node18" class="node">
<title>operandObservable.merge</title>
<ellipse fill="none" stroke="#000000" cx="323" cy="-680.5" rx="32.0942" ry="18"/>
<text text-anchor="middle" x="323" y="-676.3" font-family="Times,serif" font-size="14.00" fill="#000000">merge</text>
</g>
<!-- resetFnOb&#45;&gt;operandObservable.merge -->
<g id="edge17" class="edge">
<title>resetFnOb&#45;&gt;operandObservable.merge</title>
<path fill="none" stroke="#000000" stroke-dasharray="5,2" d="M107.3968,-743.1114C115.8977,-740.2674 125.3146,-737.187 134,-734.5 185.7733,-718.4832 246.0446,-701.5575 284.3466,-691.0144"/>
<polygon fill="#000000" stroke="#000000" points="285.3501,-694.3685 294.0668,-688.346 283.497,-687.6182 285.3501,-694.3685"/>
</g>
<!-- clearFnOb -->
<g id="node9" class="node">
<title>clearFnOb</title>
<polygon fill="none" stroke="#000000" points="197.1787,-770.5 142.8213,-770.5 142.8213,-734.5 197.1787,-734.5 197.1787,-770.5"/>
<text text-anchor="middle" x="170" y="-748.3" font-family="Times,serif" font-size="14.00" fill="#000000">mapTo</text>
</g>
<!-- clearFnOb.filter&#45;&gt;clearFnOb -->
<g id="edge8" class="edge">
<title>clearFnOb.filter&#45;&gt;clearFnOb</title>
<path fill="none" stroke="#000000" d="M167.0094,-806.3314C167.4372,-798.631 167.9459,-789.4743 168.4213,-780.9166"/>
<polygon fill="#000000" stroke="#000000" points="171.9169,-781.092 168.977,-770.9133 164.9276,-780.7037 171.9169,-781.092"/>
</g>
<!-- clearFnOb&#45;&gt;operandObservable.merge -->
<g id="edge18" class="edge">
<title>clearFnOb&#45;&gt;operandObservable.merge</title>
<path fill="none" stroke="#000000" stroke-dasharray="5,2" d="M197.3533,-739.6278C223.034,-727.5428 261.5285,-709.4278 289.1372,-696.4354"/>
<polygon fill="#000000" stroke="#000000" points="290.8521,-699.4967 298.4099,-692.0718 287.8714,-693.1629 290.8521,-699.4967"/>
</g>
<!-- percentFnOb -->
<g id="node11" class="node">
<title>percentFnOb</title>
<polygon fill="none" stroke="#000000" points="275.1787,-770.5 220.8213,-770.5 220.8213,-734.5 275.1787,-734.5 275.1787,-770.5"/>
<text text-anchor="middle" x="248" y="-748.3" font-family="Times,serif" font-size="14.00" fill="#000000">mapTo</text>
</g>
<!-- percentFnOb.filter&#45;&gt;percentFnOb -->
<g id="edge10" class="edge">
<title>percentFnOb.filter&#45;&gt;percentFnOb</title>
<path fill="none" stroke="#000000" d="M246.5047,-806.3314C246.7186,-798.631 246.9729,-789.4743 247.2106,-780.9166"/>
<polygon fill="#000000" stroke="#000000" points="250.7094,-781.0066 247.4885,-770.9133 243.7121,-780.8122 250.7094,-781.0066"/>
</g>
<!-- percentFnOb&#45;&gt;operandObservable.merge -->
<g id="edge19" class="edge">
<title>percentFnOb&#45;&gt;operandObservable.merge</title>
<path fill="none" stroke="#000000" stroke-dasharray="5,2" d="M266.9257,-734.3314C276.7031,-724.9451 288.7342,-713.3951 299.1421,-703.4036"/>
<polygon fill="#000000" stroke="#000000" points="301.5883,-705.907 306.3783,-696.4568 296.7406,-700.8573 301.5883,-705.907"/>
</g>
<!-- pointFnOb -->
<g id="node13" class="node">
<title>pointFnOb</title>
<polygon fill="none" stroke="#000000" points="350.1787,-770.5 295.8213,-770.5 295.8213,-734.5 350.1787,-734.5 350.1787,-770.5"/>
<text text-anchor="middle" x="323" y="-748.3" font-family="Times,serif" font-size="14.00" fill="#000000">mapTo</text>
</g>
<!-- pointFnOb.filter&#45;&gt;pointFnOb -->
<g id="edge12" class="edge">
<title>pointFnOb.filter&#45;&gt;pointFnOb</title>
<path fill="none" stroke="#000000" d="M323,-806.3314C323,-798.631 323,-789.4743 323,-780.9166"/>
<polygon fill="#000000" stroke="#000000" points="326.5001,-780.9132 323,-770.9133 319.5001,-780.9133 326.5001,-780.9132"/>
</g>
<!-- pointFnOb&#45;&gt;operandObservable.merge -->
<g id="edge20" class="edge">
<title>pointFnOb&#45;&gt;operandObservable.merge</title>
<path fill="none" stroke="#000000" stroke-dasharray="5,2" d="M323,-734.3314C323,-726.631 323,-717.4743 323,-708.9166"/>
<polygon fill="#000000" stroke="#000000" points="326.5001,-708.9132 323,-698.9133 319.5001,-708.9133 326.5001,-708.9132"/>
</g>
<!-- signFnOb -->
<g id="node15" class="node">
<title>signFnOb</title>
<polygon fill="none" stroke="#000000" points="424.1787,-770.5 369.8213,-770.5 369.8213,-734.5 424.1787,-734.5 424.1787,-770.5"/>
<text text-anchor="middle" x="397" y="-748.3" font-family="Times,serif" font-size="14.00" fill="#000000">mapTo</text>
</g>
<!-- signFnOb.filter&#45;&gt;signFnOb -->
<g id="edge14" class="edge">
<title>signFnOb.filter&#45;&gt;signFnOb</title>
<path fill="none" stroke="#000000" d="M397.7477,-806.3314C397.6407,-798.631 397.5135,-789.4743 397.3947,-780.9166"/>
<polygon fill="#000000" stroke="#000000" points="400.8944,-780.8637 397.2557,-770.9133 393.8951,-780.9609 400.8944,-780.8637"/>
</g>
<!-- signFnOb&#45;&gt;operandObservable.merge -->
<g id="edge21" class="edge">
<title>signFnOb&#45;&gt;operandObservable.merge</title>
<path fill="none" stroke="#000000" stroke-dasharray="5,2" d="M378.3267,-734.3314C368.7733,-725.0362 357.0392,-713.6192 346.8393,-703.695"/>
<polygon fill="#000000" stroke="#000000" points="349.0081,-700.9218 339.4,-696.4568 344.1266,-705.9389 349.0081,-700.9218"/>
</g>
<!-- numberFnOb -->
<g id="node17" class="node">
<title>numberFnOb</title>
<polygon fill="none" stroke="#000000" points="502,-770.5 448,-770.5 448,-734.5 502,-734.5 502,-770.5"/>
<text text-anchor="middle" x="475" y="-748.3" font-family="Times,serif" font-size="14.00" fill="#000000">map</text>
</g>
<!-- numberFnOb.filter&#45;&gt;numberFnOb -->
<g id="edge16" class="edge">
<title>numberFnOb.filter&#45;&gt;numberFnOb</title>
<path fill="none" stroke="#000000" d="M479.4859,-806.3314C478.8442,-798.631 478.0812,-789.4743 477.3681,-780.9166"/>
<polygon fill="#000000" stroke="#000000" points="480.8529,-780.588 476.5344,-770.9133 473.8771,-781.1694 480.8529,-780.588"/>
</g>
<!-- numberFnOb&#45;&gt;operandObservable.merge -->
<g id="edge22" class="edge">
<title>numberFnOb&#45;&gt;operandObservable.merge</title>
<path fill="none" stroke="#000000" stroke-dasharray="5,2" d="M447.8254,-739.6278C422.4654,-727.6152 384.5273,-709.6445 357.1353,-696.6694"/>
<polygon fill="#000000" stroke="#000000" points="358.4599,-693.424 347.9242,-692.3062 355.4633,-699.7502 358.4599,-693.424"/>
</g>
<!-- operandObservable.scan -->
<g id="node19" class="node">
<title>operandObservable.scan</title>
<path fill="none" stroke="#000000" d="M440.7073,-616.8525C440.7073,-622.245 421.5652,-626.6253 398,-626.6253 374.4348,-626.6253 355.2927,-622.245 355.2927,-616.8525 355.2927,-616.8525 355.2927,-528.8975 355.2927,-528.8975 355.2927,-523.505 374.4348,-519.1247 398,-519.1247 421.5652,-519.1247 440.7073,-523.505 440.7073,-528.8975 440.7073,-528.8975 440.7073,-616.8525 440.7073,-616.8525"/>
<path fill="none" stroke="#000000" d="M440.7073,-616.8525C440.7073,-611.46 421.5652,-607.0797 398,-607.0797 374.4348,-607.0797 355.2927,-611.46 355.2927,-616.8525"/>
<text text-anchor="middle" x="398" y="-596.675" font-family="Times,serif" font-size="14.00" fill="#000000">scan</text>
<text text-anchor="start" x="363.3965" y="-582.675" font-family="Times,serif" font-size="14.00" fill="#000000">&#45;inputMode</text>
<text text-anchor="start" x="363.3965" y="-568.675" font-family="Times,serif" font-size="14.00" fill="#000000">&#45;isMinus</text>
<text text-anchor="start" x="363.3965" y="-554.675" font-family="Times,serif" font-size="14.00" fill="#000000">&#45;valueString</text>
<text text-anchor="start" x="363.3965" y="-540.675" font-family="Times,serif" font-size="14.00" fill="#000000">&#45;byReset</text>
</g>
<!-- operandObservable.merge&#45;&gt;operandObservable.scan -->
<g id="edge23" class="edge">
<title>operandObservable.merge&#45;&gt;operandObservable.scan</title>
<path fill="none" stroke="#000000" d="M334.7188,-663.6836C340.7524,-655.0253 348.512,-643.8903 356.5164,-632.4039"/>
<polygon fill="#000000" stroke="#000000" points="359.5211,-634.2139 362.367,-624.0084 353.7781,-630.2117 359.5211,-634.2139"/>
</g>
<!-- operandObservable -->
<g id="node20" class="node">
<title>operandObservable</title>
<polygon fill="none" stroke="#000000" points="476.3965,-483.25 399.6035,-483.25 399.6035,-447.25 476.3965,-447.25 476.3965,-483.25"/>
<text text-anchor="middle" x="438" y="-461.05" font-family="Times,serif" font-size="14.00" fill="#000000">mergeMap</text>
</g>
<!-- operandObservable.scan&#45;&gt;operandObservable -->
<g id="edge24" class="edge">
<title>operandObservable.scan&#45;&gt;operandObservable</title>
<path fill="none" stroke="#000000" d="M418,-519.0625C421.3508,-510.0467 424.7017,-501.0308 427.6763,-493.0273"/>
<polygon fill="#000000" stroke="#000000" points="431.0114,-494.1 431.2145,-483.5071 424.45,-491.6613 431.0114,-494.1"/>
</g>
<!-- operand -->
<g id="node21" class="node">
<title>operand</title>
<polygon fill="none" stroke="#000000" points="594,-411.25 540,-411.25 540,-375.25 594,-375.25 594,-411.25"/>
<text text-anchor="middle" x="567" y="-389.05" font-family="Times,serif" font-size="14.00" fill="#000000">map</text>
</g>
<!-- operandObservable&#45;&gt;operand -->
<g id="edge25" class="edge">
<title>operandObservable&#45;&gt;operand</title>
<path fill="none" stroke="#000000" d="M470.5521,-447.0814C488.897,-436.8424 511.8547,-424.0288 530.7692,-413.4719"/>
<polygon fill="#000000" stroke="#000000" points="532.6655,-416.4217 539.6917,-408.4918 529.2539,-410.3094 532.6655,-416.4217"/>
</g>
<!-- subscribe.merge -->
<g id="node27" class="node">
<title>subscribe.merge</title>
<ellipse fill="none" stroke="#000000" cx="639" cy="-321.25" rx="32.0942" ry="18"/>
<text text-anchor="middle" x="639" y="-317.05" font-family="Times,serif" font-size="14.00" fill="#000000">merge</text>
</g>
<!-- operand&#45;&gt;subscribe.merge -->
<g id="edge30" class="edge">
<title>operand&#45;&gt;subscribe.merge</title>
<path fill="none" stroke="#000000" stroke-dasharray="5,2" d="M585.1686,-375.0814C594.4638,-365.7862 605.8808,-354.3692 615.805,-344.445"/>
<polygon fill="#000000" stroke="#000000" points="618.447,-346.7528 623.0432,-337.2068 613.4972,-341.803 618.447,-346.7528"/>
</g>
<!-- enter -->
<g id="node23" class="node">
<title>enter</title>
<polygon fill="none" stroke="#000000" points="666,-411.25 612,-411.25 612,-375.25 666,-375.25 666,-411.25"/>
<text text-anchor="middle" x="639" y="-389.05" font-family="Times,serif" font-size="14.00" fill="#000000">map</text>
</g>
<!-- enter.filter&#45;&gt;enter -->
<g id="edge27" class="edge">
<title>enter.filter&#45;&gt;enter</title>
<path fill="none" stroke="#000000" d="M598.6265,-447.0814C604.846,-438.7886 612.3322,-428.807 619.16,-419.7033"/>
<polygon fill="#000000" stroke="#000000" points="621.99,-421.7633 625.19,-411.6633 616.39,-417.5633 621.99,-421.7633"/>
</g>
<!-- enter&#45;&gt;subscribe.merge -->
<g id="edge31" class="edge">
<title>enter&#45;&gt;subscribe.merge</title>
<path fill="none" stroke="#000000" stroke-dasharray="5,2" d="M639,-375.0814C639,-367.381 639,-358.2243 639,-349.6666"/>
<polygon fill="#000000" stroke="#000000" points="642.5001,-349.6632 639,-339.6633 635.5001,-349.6633 642.5001,-349.6632"/>
</g>
<!-- operator -->
<g id="node25" class="node">
<title>operator</title>
<polygon fill="none" stroke="#000000" points="738,-411.25 684,-411.25 684,-375.25 738,-375.25 738,-411.25"/>
<text text-anchor="middle" x="711" y="-389.05" font-family="Times,serif" font-size="14.00" fill="#000000">map</text>
</g>
<!-- operator.filter&#45;&gt;operator -->
<g id="edge29" class="edge">
<title>operator.filter&#45;&gt;operator</title>
<path fill="none" stroke="#000000" d="M691.5609,-447.0814C694.4027,-439.2117 697.7937,-429.8212 700.9419,-421.1033"/>
<polygon fill="#000000" stroke="#000000" points="704.2462,-422.2576 704.3508,-411.6633 697.6623,-419.88 704.2462,-422.2576"/>
</g>
<!-- operator&#45;&gt;subscribe.merge -->
<g id="edge32" class="edge">
<title>operator&#45;&gt;subscribe.merge</title>
<path fill="none" stroke="#000000" stroke-dasharray="5,2" d="M692.8314,-375.0814C683.5362,-365.7862 672.1192,-354.3692 662.195,-344.445"/>
<polygon fill="#000000" stroke="#000000" points="664.5028,-341.803 654.9568,-337.2068 659.553,-346.7528 664.5028,-341.803"/>
</g>
<!-- subscribe.scan -->
<g id="node26" class="node">
<title>subscribe.scan</title>
<path fill="none" stroke="#000000" d="M672.8044,-257.6025C672.8044,-262.995 657.6527,-267.3753 639,-267.3753 620.3473,-267.3753 605.1956,-262.995 605.1956,-257.6025 605.1956,-257.6025 605.1956,-169.6475 605.1956,-169.6475 605.1956,-164.255 620.3473,-159.8747 639,-159.8747 657.6527,-159.8747 672.8044,-164.255 672.8044,-169.6475 672.8044,-169.6475 672.8044,-257.6025 672.8044,-257.6025"/>
<path fill="none" stroke="#000000" d="M672.8044,-257.6025C672.8044,-252.21 657.6527,-247.8297 639,-247.8297 620.3473,-247.8297 605.1956,-252.21 605.1956,-257.6025"/>
<text text-anchor="middle" x="639" y="-237.425" font-family="Times,serif" font-size="14.00" fill="#000000">scan</text>
<text text-anchor="start" x="613.3481" y="-223.425" font-family="Times,serif" font-size="14.00" fill="#000000">&#45;step</text>
<text text-anchor="start" x="613.3481" y="-209.425" font-family="Times,serif" font-size="14.00" fill="#000000">&#45;first</text>
<text text-anchor="start" x="613.3481" y="-195.425" font-family="Times,serif" font-size="14.00" fill="#000000">&#45;second</text>
<text text-anchor="start" x="613.3481" y="-181.425" font-family="Times,serif" font-size="14.00" fill="#000000">&#45;operator</text>
</g>
<!-- subscribe.startWith -->
<g id="node28" class="node">
<title>subscribe.startWith</title>
<polygon fill="none" stroke="#000000" points="672.5445,-124 605.4555,-124 605.4555,-88 672.5445,-88 672.5445,-124"/>
<text text-anchor="middle" x="639" y="-101.8" font-family="Times,serif" font-size="14.00" fill="#000000">startWith</text>
</g>
<!-- subscribe.scan&#45;&gt;subscribe.startWith -->
<g id="edge34" class="edge">
<title>subscribe.scan&#45;&gt;subscribe.startWith</title>
<path fill="none" stroke="#000000" d="M639,-159.8125C639,-150.997 639,-142.1815 639,-134.3124"/>
<polygon fill="#000000" stroke="#000000" points="642.5001,-134.2571 639,-124.2571 635.5001,-134.2571 642.5001,-134.2571"/>
</g>
<!-- subscribe.merge&#45;&gt;subscribe.scan -->
<g id="edge33" class="edge">
<title>subscribe.merge&#45;&gt;subscribe.scan</title>
<path fill="none" stroke="#000000" d="M639,-302.9929C639,-295.6819 639,-286.786 639,-277.4745"/>
<polygon fill="#000000" stroke="#000000" points="642.5001,-277.2626 639,-267.2626 635.5001,-277.2626 642.5001,-277.2626"/>
</g>
<!-- subscribe.subscribe -->
<g id="node29" class="node">
<title>subscribe.subscribe</title>
<ellipse fill="none" stroke="#000000" cx="639" cy="-34" rx="43.5146" ry="18"/>
<text text-anchor="middle" x="639" y="-29.8" font-family="Times,serif" font-size="14.00" fill="#000000">subscribe</text>
</g>
<!-- subscribe.startWith&#45;&gt;subscribe.subscribe -->
<g id="edge35" class="edge">
<title>subscribe.startWith&#45;&gt;subscribe.subscribe</title>
<path fill="none" stroke="#000000" d="M639,-87.8314C639,-80.131 639,-70.9743 639,-62.4166"/>
<polygon fill="#000000" stroke="#000000" points="642.5001,-62.4132 639,-52.4133 635.5001,-62.4133 642.5001,-62.4132"/>
</g>
</g>
</svg>
