<?xml version="1.0" encoding="UTF-8" standalone="no"?>
<!DOCTYPE svg PUBLIC "-//W3C//DTD SVG 1.1//EN"
 "http://www.w3.org/Graphics/SVG/1.1/DTD/svg11.dtd">
<!-- Generated by graphviz version 2.40.1 (20161225.0304)
 -->
<!-- Title: calculator Pages: 1 -->
<svg width="762pt" height="1195pt"
 viewBox="0.00 0.00 762.00 1194.50" xmlns="http://www.w3.org/2000/svg" xmlns:xlink="http://www.w3.org/1999/xlink">
<g id="graph0" class="graph" transform="scale(1 1) rotate(0) translate(4 1190.5)">
<title>calculator</title>
<polygon fill="#ffffff" stroke="transparent" points="-4,4 -4,-1190.5 758,-1190.5 758,4 -4,4"/>
<g id="clust1" class="cluster">
<title>cluster_buttonsObservable</title>
<polygon fill="none" stroke="#000000" points="213,-880.5 213,-1178.5 532,-1178.5 532,-880.5 213,-880.5"/>
<text text-anchor="middle" x="372.5" y="-1163.3" font-family="Times,serif" font-size="14.00" fill="#000000">buttonsObservable</text>
</g>
<g id="clust3" class="cluster">
<title>cluster_operandObservable</title>
<polygon fill="none" stroke="#000000" points="8,-439.25 8,-872.5 524,-872.5 524,-439.25 8,-439.25"/>
<text text-anchor="middle" x="266" y="-857.3" font-family="Times,serif" font-size="14.00" fill="#000000">operandOpservable</text>
</g>
<g id="clust11" class="cluster">
<title>cluster_subscribe</title>
<polygon fill="none" stroke="#000000" points="532,-8 532,-491.25 746,-491.25 746,-8 532,-8"/>
</g>
<!-- buttonsObservable.buttonsOb -->
<g id="node1" class="node">
<title>buttonsObservable.buttonsOb</title>
<ellipse fill="none" stroke="#000000" cx="280" cy="-1130.5" rx="59.4599" ry="18"/>
<text text-anchor="middle" x="280" y="-1126.3" font-family="Times,serif" font-size="14.00" fill="#000000">from(buttons)</text>
</g>
<!-- buttonsObservable.zip -->
<g id="node3" class="node">
<title>buttonsObservable.zip</title>
<ellipse fill="none" stroke="#000000" cx="360" cy="-1058.5" rx="27" ry="18"/>
<text text-anchor="middle" x="360" y="-1054.3" font-family="Times,serif" font-size="14.00" fill="#000000">zip</text>
</g>
<!-- buttonsObservable.buttonsOb&#45;&gt;buttonsObservable.zip -->
<g id="edge1" class="edge">
<title>buttonsObservable.buttonsOb&#45;&gt;buttonsObservable.zip</title>
<path fill="none" stroke="#000000" stroke-dasharray="5,2" d="M298.9589,-1113.437C310.1781,-1103.3397 324.4846,-1090.4639 336.4268,-1079.7158"/>
<polygon fill="#000000" stroke="#000000" points="338.7854,-1082.3019 343.877,-1073.0107 334.1026,-1077.0989 338.7854,-1082.3019"/>
</g>
<!-- buttonsObservable.buttonsConfigOb -->
<g id="node2" class="node">
<title>buttonsObservable.buttonsConfigOb</title>
<ellipse fill="none" stroke="#000000" cx="441" cy="-1130.5" rx="83.1235" ry="18"/>
<text text-anchor="middle" x="441" y="-1126.3" font-family="Times,serif" font-size="14.00" fill="#000000">from(buttonsConfig)</text>
</g>
<!-- buttonsObservable.buttonsConfigOb&#45;&gt;buttonsObservable.zip -->
<g id="edge2" class="edge">
<title>buttonsObservable.buttonsConfigOb&#45;&gt;buttonsObservable.zip</title>
<path fill="none" stroke="#000000" stroke-dasharray="5,2" d="M420.9775,-1112.7022C409.7866,-1102.7548 395.7649,-1090.291 383.9898,-1079.8243"/>
<polygon fill="#000000" stroke="#000000" points="386.0586,-1076.9803 376.2592,-1072.9526 381.408,-1082.2122 386.0586,-1076.9803"/>
</g>
<!-- buttonsObservable.mergeAll -->
<g id="node4" class="node">
<title>buttonsObservable.mergeAll</title>
<polygon fill="none" stroke="#000000" points="394.1241,-1004.5 325.8759,-1004.5 325.8759,-968.5 394.1241,-968.5 394.1241,-1004.5"/>
<text text-anchor="middle" x="360" y="-982.3" font-family="Times,serif" font-size="14.00" fill="#000000">mergeAll</text>
</g>
<!-- buttonsObservable.zip&#45;&gt;buttonsObservable.mergeAll -->
<g id="edge3" class="edge">
<title>buttonsObservable.zip&#45;&gt;buttonsObservable.mergeAll</title>
<path fill="none" stroke="#000000" d="M360,-1040.3314C360,-1032.631 360,-1023.4743 360,-1014.9166"/>
<polygon fill="#000000" stroke="#000000" points="363.5001,-1014.9132 360,-1004.9133 356.5001,-1014.9133 363.5001,-1014.9132"/>
</g>
<!-- buttonsObservable -->
<g id="node5" class="node">
<title>buttonsObservable</title>
<polygon fill="none" stroke="#000000" points="391.2558,-903.0442 391.2558,-917.9558 372.9466,-928.5 347.0534,-928.5 328.7442,-917.9558 328.7442,-903.0442 347.0534,-892.5 372.9466,-892.5 391.2558,-903.0442"/>
<polygon fill="none" stroke="#000000" points="395.2712,-900.7363 395.2712,-920.2637 374.0238,-932.5 345.9762,-932.5 324.7288,-920.2637 324.7288,-900.7363 345.9762,-888.5 374.0238,-888.5 395.2712,-900.7363"/>
<text text-anchor="middle" x="360" y="-906.3" font-family="Times,serif" font-size="14.00" fill="#000000">share</text>
</g>
<!-- buttonsObservable.mergeAll&#45;&gt;buttonsObservable -->
<g id="edge4" class="edge">
<title>buttonsObservable.mergeAll&#45;&gt;buttonsObservable</title>
<path fill="none" stroke="#000000" d="M360,-968.4891C360,-960.791 360,-951.5629 360,-942.7561"/>
<polygon fill="#000000" stroke="#000000" points="363.5001,-942.7282 360,-932.7282 356.5001,-942.7282 363.5001,-942.7282"/>
</g>
<!-- resetFnOb.filter -->
<g id="node6" class="node">
<title>resetFnOb.filter</title>
<polygon fill="none" stroke="#000000" points="117.7981,-842.5 16.2019,-842.5 16.2019,-806.5 117.7981,-806.5 117.7981,-842.5"/>
<text text-anchor="middle" x="67" y="-820.3" font-family="Times,serif" font-size="14.00" fill="#000000">filter(+,&#45;,×,÷,=)</text>
</g>
<!-- buttonsObservable&#45;&gt;resetFnOb.filter -->
<g id="edge5" class="edge">
<title>buttonsObservable&#45;&gt;resetFnOb.filter</title>
<path fill="none" stroke="#000000" d="M324.4581,-906.9986C268.0446,-901.0633 160.8249,-888.1342 126,-872.5 113.5479,-866.9098 101.5324,-858.0082 91.6311,-849.3808"/>
<polygon fill="#000000" stroke="#000000" points="93.9252,-846.7361 84.1757,-842.5891 89.2111,-851.9109 93.9252,-846.7361"/>
</g>
<!-- clearFnOb.filter -->
<g id="node8" class="node">
<title>clearFnOb.filter</title>
<polygon fill="none" stroke="#000000" points="196.6036,-842.5 135.3964,-842.5 135.3964,-806.5 196.6036,-806.5 196.6036,-842.5"/>
<text text-anchor="middle" x="166" y="-820.3" font-family="Times,serif" font-size="14.00" fill="#000000">filter(C)</text>
</g>
<!-- buttonsObservable&#45;&gt;clearFnOb.filter -->
<g id="edge7" class="edge">
<title>buttonsObservable&#45;&gt;clearFnOb.filter</title>
<path fill="none" stroke="#000000" d="M324.5589,-908.2532C291.4048,-904.7326 241.6349,-895.6959 205,-872.5 196.2472,-866.958 188.5523,-858.7752 182.3611,-850.7294"/>
<polygon fill="#000000" stroke="#000000" points="185.1418,-848.6011 176.4723,-842.5109 179.4517,-852.6782 185.1418,-848.6011"/>
</g>
<!-- percentFnOb.filter -->
<g id="node10" class="node">
<title>percentFnOb.filter</title>
<polygon fill="none" stroke="#000000" points="277.9292,-842.5 214.0708,-842.5 214.0708,-806.5 277.9292,-806.5 277.9292,-842.5"/>
<text text-anchor="middle" x="246" y="-820.3" font-family="Times,serif" font-size="14.00" fill="#000000">filter(%)</text>
</g>
<!-- buttonsObservable&#45;&gt;percentFnOb.filter -->
<g id="edge9" class="edge">
<title>buttonsObservable&#45;&gt;percentFnOb.filter</title>
<path fill="none" stroke="#000000" d="M329.1809,-898.0634C315.2136,-891.6042 298.9639,-882.8815 286,-872.5 278.2895,-866.3255 271.0032,-858.4701 264.8149,-850.911"/>
<polygon fill="#000000" stroke="#000000" points="267.4809,-848.6385 258.5628,-842.9184 261.9674,-852.9514 267.4809,-848.6385"/>
</g>
<!-- pointFnOb.filter -->
<g id="node12" class="node">
<title>pointFnOb.filter</title>
<polygon fill="none" stroke="#000000" points="350.7663,-842.5 295.2337,-842.5 295.2337,-806.5 350.7663,-806.5 350.7663,-842.5"/>
<text text-anchor="middle" x="323" y="-820.3" font-family="Times,serif" font-size="14.00" fill="#000000">filter(.)</text>
</g>
<!-- buttonsObservable&#45;&gt;pointFnOb.filter -->
<g id="edge11" class="edge">
<title>buttonsObservable&#45;&gt;pointFnOb.filter</title>
<path fill="none" stroke="#000000" d="M350.4716,-888.3529C345.6874,-877.2328 339.847,-863.6579 334.7834,-851.8884"/>
<polygon fill="#000000" stroke="#000000" points="337.9201,-850.3229 330.7529,-842.5202 331.49,-853.0894 337.9201,-850.3229"/>
</g>
<!-- signFnOb.filter -->
<g id="node14" class="node">
<title>signFnOb.filter</title>
<polygon fill="none" stroke="#000000" points="427.9509,-842.5 368.0491,-842.5 368.0491,-806.5 427.9509,-806.5 427.9509,-842.5"/>
<text text-anchor="middle" x="398" y="-820.3" font-family="Times,serif" font-size="14.00" fill="#000000">filter(±)</text>
</g>
<!-- buttonsObservable&#45;&gt;signFnOb.filter -->
<g id="edge13" class="edge">
<title>buttonsObservable&#45;&gt;signFnOb.filter</title>
<path fill="none" stroke="#000000" d="M369.7859,-888.3529C374.6994,-877.2328 380.6977,-863.6579 385.8981,-851.8884"/>
<polygon fill="#000000" stroke="#000000" points="389.1973,-853.0817 390.0376,-842.5202 382.7945,-850.2525 389.1973,-853.0817"/>
</g>
<!-- numberFnOb.filter -->
<g id="node16" class="node">
<title>numberFnOb.filter</title>
<polygon fill="none" stroke="#000000" points="516.429,-842.5 445.571,-842.5 445.571,-806.5 516.429,-806.5 516.429,-842.5"/>
<text text-anchor="middle" x="481" y="-820.3" font-family="Times,serif" font-size="14.00" fill="#000000">filter(0&#45;9)</text>
</g>
<!-- buttonsObservable&#45;&gt;numberFnOb.filter -->
<g id="edge15" class="edge">
<title>buttonsObservable&#45;&gt;numberFnOb.filter</title>
<path fill="none" stroke="#000000" d="M391.1111,-898.3142C405.7657,-891.8038 423.0482,-882.9669 437,-872.5 445.2346,-866.3222 453.1783,-858.4659 459.9961,-850.907"/>
<polygon fill="#000000" stroke="#000000" points="463.0152,-852.7668 466.9127,-842.9149 457.7222,-848.186 463.0152,-852.7668"/>
</g>
<!-- enter.filter -->
<g id="node22" class="node">
<title>enter.filter</title>
<polygon fill="none" stroke="#000000" points="614.6621,-483.25 555.3379,-483.25 555.3379,-447.25 614.6621,-447.25 614.6621,-483.25"/>
<text text-anchor="middle" x="585" y="-461.05" font-family="Times,serif" font-size="14.00" fill="#000000">filter(=)</text>
</g>
<!-- buttonsObservable&#45;&gt;enter.filter -->
<g id="edge26" class="edge">
<title>buttonsObservable&#45;&gt;enter.filter</title>
<path fill="none" stroke="#000000" d="M395.3405,-906.8772C438.9244,-901.69 509.5227,-890.7082 528,-872.5 567.0816,-833.9877 557,-807.3686 557,-752.5 557,-752.5 557,-752.5 557,-680.5 557,-612.8701 570.7603,-534.2788 578.9882,-493.3305"/>
<polygon fill="#000000" stroke="#000000" points="582.467,-493.7887 581.0477,-483.2893 575.6098,-492.3822 582.467,-493.7887"/>
</g>
<!-- operator.filter -->
<g id="node24" class="node">
<title>operator.filter</title>
<polygon fill="none" stroke="#000000" points="730.4032,-483.25 639.5968,-483.25 639.5968,-447.25 730.4032,-447.25 730.4032,-483.25"/>
<text text-anchor="middle" x="685" y="-461.05" font-family="Times,serif" font-size="14.00" fill="#000000">filter(+,&#45;,×,÷)</text>
</g>
<!-- buttonsObservable&#45;&gt;operator.filter -->
<g id="edge28" class="edge">
<title>buttonsObservable&#45;&gt;operator.filter</title>
<path fill="none" stroke="#000000" d="M395.1783,-907.2337C444.8138,-902.0488 532.2349,-890.6257 558,-872.5 608.6838,-836.844 629,-814.4693 629,-752.5 629,-752.5 629,-752.5 629,-680.5 629,-611.0857 656.6135,-533.0188 673.0596,-492.6792"/>
<polygon fill="#000000" stroke="#000000" points="676.3667,-493.8417 676.9766,-483.2645 669.9037,-491.1528 676.3667,-493.8417"/>
</g>
<!-- resetFnOb -->
<g id="node7" class="node">
<title>resetFnOb</title>
<polygon fill="none" stroke="#000000" points="107.1787,-770.5 52.8213,-770.5 52.8213,-734.5 107.1787,-734.5 107.1787,-770.5"/>
<text text-anchor="middle" x="80" y="-748.3" font-family="Times,serif" font-size="14.00" fill="#000000">mapTo</text>
</g>
<!-- resetFnOb.filter&#45;&gt;resetFnOb -->
<g id="edge6" class="edge">
<title>resetFnOb.filter&#45;&gt;resetFnOb</title>
<path fill="none" stroke="#000000" d="M70.2804,-806.3314C71.6708,-798.631 73.3241,-789.4743 74.8692,-780.9166"/>
<polygon fill="#000000" stroke="#000000" points="78.3428,-781.3761 76.6754,-770.9133 71.4542,-780.1322 78.3428,-781.3761"/>
</g>
<!-- operandObservable.merge -->
<g id="node18" class="node">
<title>operandObservable.merge</title>
<ellipse fill="none" stroke="#000000" cx="323" cy="-680.5" rx="32.0942" ry="18"/>
<text text-anchor="middle" x="323" y="-676.3" font-family="Times,serif" font-size="14.00" fill="#000000">merge</text>
</g>
<!-- resetFnOb&#45;&gt;operandObservable.merge -->
<g id="edge17" class="edge">
<title>resetFnOb&#45;&gt;operandObservable.merge</title>
<path fill="none" stroke="#000000" stroke-dasharray="5,2" d="M107.4218,-742.8928C115.621,-740.0999 124.6504,-737.1026 133,-734.5 184.9923,-718.2941 245.5957,-701.4139 284.1183,-690.9326"/>
<polygon fill="#000000" stroke="#000000" points="285.1597,-694.2767 293.8948,-688.281 283.3273,-687.5208 285.1597,-694.2767"/>
</g>
<!-- clearFnOb -->
<g id="node9" class="node">
<title>clearFnOb</title>
<polygon fill="none" stroke="#000000" points="196.1787,-770.5 141.8213,-770.5 141.8213,-734.5 196.1787,-734.5 196.1787,-770.5"/>
<text text-anchor="middle" x="169" y="-748.3" font-family="Times,serif" font-size="14.00" fill="#000000">mapTo</text>
</g>
<!-- clearFnOb.filter&#45;&gt;clearFnOb -->
<g id="edge8" class="edge">
<title>clearFnOb.filter&#45;&gt;clearFnOb</title>
<path fill="none" stroke="#000000" d="M166.757,-806.3314C167.0779,-798.631 167.4594,-789.4743 167.816,-780.9166"/>
<polygon fill="#000000" stroke="#000000" points="171.3133,-781.0503 168.2328,-770.9133 164.3194,-780.7589 171.3133,-781.0503"/>
</g>
<!-- clearFnOb&#45;&gt;operandObservable.merge -->
<g id="edge18" class="edge">
<title>clearFnOb&#45;&gt;operandObservable.merge</title>
<path fill="none" stroke="#000000" stroke-dasharray="5,2" d="M196.5321,-739.6278C222.3806,-727.5428 261.1267,-709.4278 288.9159,-696.4354"/>
<polygon fill="#000000" stroke="#000000" points="290.6728,-699.4777 298.2492,-692.0718 287.708,-693.1366 290.6728,-699.4777"/>
</g>
<!-- percentFnOb -->
<g id="node11" class="node">
<title>percentFnOb</title>
<polygon fill="none" stroke="#000000" points="275.1787,-770.5 220.8213,-770.5 220.8213,-734.5 275.1787,-734.5 275.1787,-770.5"/>
<text text-anchor="middle" x="248" y="-748.3" font-family="Times,serif" font-size="14.00" fill="#000000">mapTo</text>
</g>
<!-- percentFnOb.filter&#45;&gt;percentFnOb -->
<g id="edge10" class="edge">
<title>percentFnOb.filter&#45;&gt;percentFnOb</title>
<path fill="none" stroke="#000000" d="M246.5047,-806.3314C246.7186,-798.631 246.9729,-789.4743 247.2106,-780.9166"/>
<polygon fill="#000000" stroke="#000000" points="250.7094,-781.0066 247.4885,-770.9133 243.7121,-780.8122 250.7094,-781.0066"/>
</g>
<!-- percentFnOb&#45;&gt;operandObservable.merge -->
<g id="edge19" class="edge">
<title>percentFnOb&#45;&gt;operandObservable.merge</title>
<path fill="none" stroke="#000000" stroke-dasharray="5,2" d="M266.9257,-734.3314C276.7031,-724.9451 288.7342,-713.3951 299.1421,-703.4036"/>
<polygon fill="#000000" stroke="#000000" points="301.5883,-705.907 306.3783,-696.4568 296.7406,-700.8573 301.5883,-705.907"/>
</g>
<!-- pointFnOb -->
<g id="node13" class="node">
<title>pointFnOb</title>
<polygon fill="none" stroke="#000000" points="350.1787,-770.5 295.8213,-770.5 295.8213,-734.5 350.1787,-734.5 350.1787,-770.5"/>
<text text-anchor="middle" x="323" y="-748.3" font-family="Times,serif" font-size="14.00" fill="#000000">mapTo</text>
</g>
<!-- pointFnOb.filter&#45;&gt;pointFnOb -->
<g id="edge12" class="edge">
<title>pointFnOb.filter&#45;&gt;pointFnOb</title>
<path fill="none" stroke="#000000" d="M323,-806.3314C323,-798.631 323,-789.4743 323,-780.9166"/>
<polygon fill="#000000" stroke="#000000" points="326.5001,-780.9132 323,-770.9133 319.5001,-780.9133 326.5001,-780.9132"/>
</g>
<!-- pointFnOb&#45;&gt;operandObservable.merge -->
<g id="edge20" class="edge">
<title>pointFnOb&#45;&gt;operandObservable.merge</title>
<path fill="none" stroke="#000000" stroke-dasharray="5,2" d="M323,-734.3314C323,-726.631 323,-717.4743 323,-708.9166"/>
<polygon fill="#000000" stroke="#000000" points="326.5001,-708.9132 323,-698.9133 319.5001,-708.9133 326.5001,-708.9132"/>
</g>
<!-- signFnOb -->
<g id="node15" class="node">
<title>signFnOb</title>
<polygon fill="none" stroke="#000000" points="424.1787,-770.5 369.8213,-770.5 369.8213,-734.5 424.1787,-734.5 424.1787,-770.5"/>
<text text-anchor="middle" x="397" y="-748.3" font-family="Times,serif" font-size="14.00" fill="#000000">mapTo</text>
</g>
<!-- signFnOb.filter&#45;&gt;signFnOb -->
<g id="edge14" class="edge">
<title>signFnOb.filter&#45;&gt;signFnOb</title>
<path fill="none" stroke="#000000" d="M397.7477,-806.3314C397.6407,-798.631 397.5135,-789.4743 397.3947,-780.9166"/>
<polygon fill="#000000" stroke="#000000" points="400.8944,-780.8637 397.2557,-770.9133 393.8951,-780.9609 400.8944,-780.8637"/>
</g>
<!-- signFnOb&#45;&gt;operandObservable.merge -->
<g id="edge21" class="edge">
<title>signFnOb&#45;&gt;operandObservable.merge</title>
<path fill="none" stroke="#000000" stroke-dasharray="5,2" d="M378.3267,-734.3314C368.7733,-725.0362 357.0392,-713.6192 346.8393,-703.695"/>
<polygon fill="#000000" stroke="#000000" points="349.0081,-700.9218 339.4,-696.4568 344.1266,-705.9389 349.0081,-700.9218"/>
</g>
<!-- numberFnOb -->
<g id="node17" class="node">
<title>numberFnOb</title>
<polygon fill="none" stroke="#000000" points="502,-770.5 448,-770.5 448,-734.5 502,-734.5 502,-770.5"/>
<text text-anchor="middle" x="475" y="-748.3" font-family="Times,serif" font-size="14.00" fill="#000000">map</text>
</g>
<!-- numberFnOb.filter&#45;&gt;numberFnOb -->
<g id="edge16" class="edge">
<title>numberFnOb.filter&#45;&gt;numberFnOb</title>
<path fill="none" stroke="#000000" d="M479.4859,-806.3314C478.8442,-798.631 478.0812,-789.4743 477.3681,-780.9166"/>
<polygon fill="#000000" stroke="#000000" points="480.8529,-780.588 476.5344,-770.9133 473.8771,-781.1694 480.8529,-780.588"/>
</g>
<!-- numberFnOb&#45;&gt;operandObservable.merge -->
<g id="edge22" class="edge">
<title>numberFnOb&#45;&gt;operandObservable.merge</title>
<path fill="none" stroke="#000000" stroke-dasharray="5,2" d="M447.8254,-739.6278C422.4654,-727.6152 384.5273,-709.6445 357.1353,-696.6694"/>
<polygon fill="#000000" stroke="#000000" points="358.4599,-693.424 347.9242,-692.3062 355.4633,-699.7502 358.4599,-693.424"/>
</g>
<!-- operandObservable.scan -->
<g id="node19" class="node">
<title>operandObservable.scan</title>
<path fill="none" stroke="#000000" d="M440.7073,-616.8525C440.7073,-622.245 421.5652,-626.6253 398,-626.6253 374.4348,-626.6253 355.2927,-622.245 355.2927,-616.8525 355.2927,-616.8525 355.2927,-528.8975 355.2927,-528.8975 355.2927,-523.505 374.4348,-519.1247 398,-519.1247 421.5652,-519.1247 440.7073,-523.505 440.7073,-528.8975 440.7073,-528.8975 440.7073,-616.8525 440.7073,-616.8525"/>
<path fill="none" stroke="#000000" d="M440.7073,-616.8525C440.7073,-611.46 421.5652,-607.0797 398,-607.0797 374.4348,-607.0797 355.2927,-611.46 355.2927,-616.8525"/>
<text text-anchor="middle" x="398" y="-596.675" font-family="Times,serif" font-size="14.00" fill="#000000">scan</text>
<text text-anchor="start" x="363.3965" y="-582.675" font-family="Times,serif" font-size="14.00" fill="#000000">&#45;inputMode</text>
<text text-anchor="start" x="363.3965" y="-568.675" font-family="Times,serif" font-size="14.00" fill="#000000">&#45;isMinus</text>
<text text-anchor="start" x="363.3965" y="-554.675" font-family="Times,serif" font-size="14.00" fill="#000000">&#45;valueString</text>
<text text-anchor="start" x="363.3965" y="-540.675" font-family="Times,serif" font-size="14.00" fill="#000000">&#45;byReset</text>
</g>
<!-- operandObservable.merge&#45;&gt;operandObservable.scan -->
<g id="edge23" class="edge">
<title>operandObservable.merge&#45;&gt;operandObservable.scan</title>
<path fill="none" stroke="#000000" d="M334.7188,-663.6836C340.7524,-655.0253 348.512,-643.8903 356.5164,-632.4039"/>
<polygon fill="#000000" stroke="#000000" points="359.5211,-634.2139 362.367,-624.0084 353.7781,-630.2117 359.5211,-634.2139"/>
</g>
<!-- operandObservable -->
<g id="node20" class="node">
<title>operandObservable</title>
<polygon fill="none" stroke="#000000" points="476.3965,-483.25 399.6035,-483.25 399.6035,-447.25 476.3965,-447.25 476.3965,-483.25"/>
<text text-anchor="middle" x="438" y="-461.05" font-family="Times,serif" font-size="14.00" fill="#000000">mergeMap</text>
</g>
<!-- operandObservable.scan&#45;&gt;operandObservable -->
<g id="edge24" class="edge">
<title>operandObservable.scan&#45;&gt;operandObservable</title>
<path fill="none" stroke="#000000" d="M418,-519.0625C421.3508,-510.0467 424.7017,-501.0308 427.6763,-493.0273"/>
<polygon fill="#000000" stroke="#000000" points="431.0114,-494.1 431.2145,-483.5071 424.45,-491.6613 431.0114,-494.1"/>
</g>
<!-- operand -->
<g id="node21" class="node">
<title>operand</title>
<polygon fill="none" stroke="#000000" points="594,-411.25 540,-411.25 540,-375.25 594,-375.25 594,-411.25"/>
<text text-anchor="middle" x="567" y="-389.05" font-family="Times,serif" font-size="14.00" fill="#000000">map</text>
</g>
<!-- operandObservable&#45;&gt;operand -->
<g id="edge25" class="edge">
<title>operandObservable&#45;&gt;operand</title>
<path fill="none" stroke="#000000" d="M470.5521,-447.0814C488.897,-436.8424 511.8547,-424.0288 530.7692,-413.4719"/>
<polygon fill="#000000" stroke="#000000" points="532.6655,-416.4217 539.6917,-408.4918 529.2539,-410.3094 532.6655,-416.4217"/>
</g>
<!-- subscribe.merge -->
<g id="node27" class="node">
<title>subscribe.merge</title>
<ellipse fill="none" stroke="#000000" cx="639" cy="-321.25" rx="32.0942" ry="18"/>
<text text-anchor="middle" x="639" y="-317.05" font-family="Times,serif" font-size="14.00" fill="#000000">merge</text>
</g>
<!-- operand&#45;&gt;subscribe.merge -->
<g id="edge30" class="edge">
<title>operand&#45;&gt;subscribe.merge</title>
<path fill="none" stroke="#000000" stroke-dasharray="5,2" d="M585.1686,-375.0814C594.4638,-365.7862 605.8808,-354.3692 615.805,-344.445"/>
<polygon fill="#000000" stroke="#000000" points="618.447,-346.7528 623.0432,-337.2068 613.4972,-341.803 618.447,-346.7528"/>
</g>
<!-- enter -->
<g id="node23" class="node">
<title>enter</title>
<polygon fill="none" stroke="#000000" points="666,-411.25 612,-411.25 612,-375.25 666,-375.25 666,-411.25"/>
<text text-anchor="middle" x="639" y="-389.05" font-family="Times,serif" font-size="14.00" fill="#000000">map</text>
</g>
<!-- enter.filter&#45;&gt;enter -->
<g id="edge27" class="edge">
<title>enter.filter&#45;&gt;enter</title>
<path fill="none" stroke="#000000" d="M598.6265,-447.0814C604.846,-438.7886 612.3322,-428.807 619.16,-419.7033"/>
<polygon fill="#000000" stroke="#000000" points="621.99,-421.7633 625.19,-411.6633 616.39,-417.5633 621.99,-421.7633"/>
</g>
<!-- enter&#45;&gt;subscribe.merge -->
<g id="edge31" class="edge">
<title>enter&#45;&gt;subscribe.merge</title>
<path fill="none" stroke="#000000" stroke-dasharray="5,2" d="M639,-375.0814C639,-367.381 639,-358.2243 639,-349.6666"/>
<polygon fill="#000000" stroke="#000000" points="642.5001,-349.6632 639,-339.6633 635.5001,-349.6633 642.5001,-349.6632"/>
</g>
<!-- operator -->
<g id="node25" class="node">
<title>operator</title>
<polygon fill="none" stroke="#000000" points="738,-411.25 684,-411.25 684,-375.25 738,-375.25 738,-411.25"/>
<text text-anchor="middle" x="711" y="-389.05" font-family="Times,serif" font-size="14.00" fill="#000000">map</text>
</g>
<!-- operator.filter&#45;&gt;operator -->
<g id="edge29" class="edge">
<title>operator.filter&#45;&gt;operator</title>
<path fill="none" stroke="#000000" d="M691.5609,-447.0814C694.4027,-439.2117 697.7937,-429.8212 700.9419,-421.1033"/>
<polygon fill="#000000" stroke="#000000" points="704.2462,-422.2576 704.3508,-411.6633 697.6623,-419.88 704.2462,-422.2576"/>
</g>
<!-- operator&#45;&gt;subscribe.merge -->
<g id="edge32" class="edge">
<title>operator&#45;&gt;subscribe.merge</title>
<path fill="none" stroke="#000000" stroke-dasharray="5,2" d="M692.8314,-375.0814C683.5362,-365.7862 672.1192,-354.3692 662.195,-344.445"/>
<polygon fill="#000000" stroke="#000000" points="664.5028,-341.803 654.9568,-337.2068 659.553,-346.7528 664.5028,-341.803"/>
</g>
<!-- subscribe.scan -->
<g id="node26" class="node">
<title>subscribe.scan</title>
<path fill="none" stroke="#000000" d="M672.8044,-257.6025C672.8044,-262.995 657.6527,-267.3753 639,-267.3753 620.3473,-267.3753 605.1956,-262.995 605.1956,-257.6025 605.1956,-257.6025 605.1956,-169.6475 605.1956,-169.6475 605.1956,-164.255 620.3473,-159.8747 639,-159.8747 657.6527,-159.8747 672.8044,-164.255 672.8044,-169.6475 672.8044,-169.6475 672.8044,-257.6025 672.8044,-257.6025"/>
<path fill="none" stroke="#000000" d="M672.8044,-257.6025C672.8044,-252.21 657.6527,-247.8297 639,-247.8297 620.3473,-247.8297 605.1956,-252.21 605.1956,-257.6025"/>
<text text-anchor="middle" x="639" y="-237.425" font-family="Times,serif" font-size="14.00" fill="#000000">scan</text>
<text text-anchor="start" x="613.3481" y="-223.425" font-family="Times,serif" font-size="14.00" fill="#000000">&#45;step</text>
<text text-anchor="start" x="613.3481" y="-209.425" font-family="Times,serif" font-size="14.00" fill="#000000">&#45;first</text>
<text text-anchor="start" x="613.3481" y="-195.425" font-family="Times,serif" font-size="14.00" fill="#000000">&#45;second</text>
<text text-anchor="start" x="613.3481" y="-181.425" font-family="Times,serif" font-size="14.00" fill="#000000">&#45;operator</text>
</g>
<!-- subscribe.startWith -->
<g id="node28" class="node">
<title>subscribe.startWith</title>
<polygon fill="none" stroke="#000000" points="672.5445,-124 605.4555,-124 605.4555,-88 672.5445,-88 672.5445,-124"/>
<text text-anchor="middle" x="639" y="-101.8" font-family="Times,serif" font-size="14.00" fill="#000000">startWith</text>
</g>
<!-- subscribe.scan&#45;&gt;subscribe.startWith -->
<g id="edge34" class="edge">
<title>subscribe.scan&#45;&gt;subscribe.startWith</title>
<path fill="none" stroke="#000000" d="M639,-159.8125C639,-150.997 639,-142.1815 639,-134.3124"/>
<polygon fill="#000000" stroke="#000000" points="642.5001,-134.2571 639,-124.2571 635.5001,-134.2571 642.5001,-134.2571"/>
</g>
<!-- subscribe.merge&#45;&gt;subscribe.scan -->
<g id="edge33" class="edge">
<title>subscribe.merge&#45;&gt;subscribe.scan</title>
<path fill="none" stroke="#000000" d="M639,-302.9929C639,-295.6819 639,-286.786 639,-277.4745"/>
<polygon fill="#000000" stroke="#000000" points="642.5001,-277.2626 639,-267.2626 635.5001,-277.2626 642.5001,-277.2626"/>
</g>
<!-- subscribe.subscribe -->
<g id="node29" class="node">
<title>subscribe.subscribe</title>
<ellipse fill="none" stroke="#000000" cx="639" cy="-34" rx="43.5146" ry="18"/>
<text text-anchor="middle" x="639" y="-29.8" font-family="Times,serif" font-size="14.00" fill="#000000">subscribe</text>
</g>
<!-- subscribe.startWith&#45;&gt;subscribe.subscribe -->
<g id="edge35" class="edge">
<title>subscribe.startWith&#45;&gt;subscribe.subscribe</title>
<path fill="none" stroke="#000000" d="M639,-87.8314C639,-80.131 639,-70.9743 639,-62.4166"/>
<polygon fill="#000000" stroke="#000000" points="642.5001,-62.4132 639,-52.4133 635.5001,-62.4133 642.5001,-62.4132"/>
</g>
</g>
</svg>
