<?xml version="1.0" encoding="UTF-8" standalone="no"?>
<!DOCTYPE svg PUBLIC "-//W3C//DTD SVG 1.1//EN"
 "http://www.w3.org/Graphics/SVG/1.1/DTD/svg11.dtd">
<!-- Generated by graphviz version 2.40.1 (20161225.0304)
 -->
<!-- Title: calculator Pages: 1 -->
<svg width="834pt" height="1286pt"
 viewBox="0.00 0.00 834.00 1285.75" xmlns="http://www.w3.org/2000/svg" xmlns:xlink="http://www.w3.org/1999/xlink">
<g id="graph0" class="graph" transform="scale(1 1) rotate(0) translate(4 1281.75)">
<title>calculator</title>
<polygon fill="#ffffff" stroke="transparent" points="-4,4 -4,-1281.75 830,-1281.75 830,4 -4,4"/>
<g id="clust1" class="cluster">
<title>cluster_buttonsObservable</title>
<polygon fill="none" stroke="#000000" points="251,-971.75 251,-1269.75 570,-1269.75 570,-971.75 251,-971.75"/>
<text text-anchor="middle" x="410.5" y="-1254.55" font-family="Times,serif" font-size="14.00" fill="#000000">buttonsObservable</text>
</g>
<g id="clust3" class="cluster">
<title>cluster_operandObservable</title>
<polygon fill="none" stroke="#000000" points="8,-458.5 8,-963.75 524,-963.75 524,-458.5 8,-458.5"/>
<text text-anchor="middle" x="266" y="-948.55" font-family="Times,serif" font-size="14.00" fill="#000000">operandOpservable</text>
</g>
<g id="clust11" class="cluster">
<title>cluster_subscribe</title>
<polygon fill="none" stroke="#000000" points="532,-8 532,-510.5 818,-510.5 818,-8 532,-8"/>
</g>
<!-- buttonsObservable.buttonsOb -->
<g id="node1" class="node">
<title>buttonsObservable.buttonsOb</title>
<ellipse fill="none" stroke="#000000" cx="318" cy="-1221.75" rx="59.4599" ry="18"/>
<text text-anchor="middle" x="318" y="-1217.55" font-family="Times,serif" font-size="14.00" fill="#000000">from(buttons)</text>
</g>
<!-- buttonsObservable.zip -->
<g id="node3" class="node">
<title>buttonsObservable.zip</title>
<ellipse fill="none" stroke="#000000" cx="398" cy="-1149.75" rx="27" ry="18"/>
<text text-anchor="middle" x="398" y="-1145.55" font-family="Times,serif" font-size="14.00" fill="#000000">zip</text>
</g>
<!-- buttonsObservable.buttonsOb&#45;&gt;buttonsObservable.zip -->
<g id="edge1" class="edge">
<title>buttonsObservable.buttonsOb&#45;&gt;buttonsObservable.zip</title>
<path fill="none" stroke="#000000" stroke-dasharray="5,2" d="M336.9589,-1204.687C348.1781,-1194.5897 362.4846,-1181.7139 374.4268,-1170.9658"/>
<polygon fill="#000000" stroke="#000000" points="376.7854,-1173.5519 381.877,-1164.2607 372.1026,-1168.3489 376.7854,-1173.5519"/>
</g>
<!-- buttonsObservable.buttonsConfigOb -->
<g id="node2" class="node">
<title>buttonsObservable.buttonsConfigOb</title>
<ellipse fill="none" stroke="#000000" cx="479" cy="-1221.75" rx="83.1235" ry="18"/>
<text text-anchor="middle" x="479" y="-1217.55" font-family="Times,serif" font-size="14.00" fill="#000000">from(buttonsConfig)</text>
</g>
<!-- buttonsObservable.buttonsConfigOb&#45;&gt;buttonsObservable.zip -->
<g id="edge2" class="edge">
<title>buttonsObservable.buttonsConfigOb&#45;&gt;buttonsObservable.zip</title>
<path fill="none" stroke="#000000" stroke-dasharray="5,2" d="M458.9775,-1203.9522C447.7866,-1194.0048 433.7649,-1181.541 421.9898,-1171.0743"/>
<polygon fill="#000000" stroke="#000000" points="424.0586,-1168.2303 414.2592,-1164.2026 419.408,-1173.4622 424.0586,-1168.2303"/>
</g>
<!-- buttonsObservable.mergeAll -->
<g id="node4" class="node">
<title>buttonsObservable.mergeAll</title>
<polygon fill="none" stroke="#000000" points="432.1241,-1095.75 363.8759,-1095.75 363.8759,-1059.75 432.1241,-1059.75 432.1241,-1095.75"/>
<text text-anchor="middle" x="398" y="-1073.55" font-family="Times,serif" font-size="14.00" fill="#000000">mergeAll</text>
</g>
<!-- buttonsObservable.zip&#45;&gt;buttonsObservable.mergeAll -->
<g id="edge3" class="edge">
<title>buttonsObservable.zip&#45;&gt;buttonsObservable.mergeAll</title>
<path fill="none" stroke="#000000" d="M398,-1131.5814C398,-1123.881 398,-1114.7243 398,-1106.1666"/>
<polygon fill="#000000" stroke="#000000" points="401.5001,-1106.1632 398,-1096.1633 394.5001,-1106.1633 401.5001,-1106.1632"/>
</g>
<!-- buttonsObservable -->
<g id="node5" class="node">
<title>buttonsObservable</title>
<polygon fill="none" stroke="#000000" points="429.2558,-994.2942 429.2558,-1009.2058 410.9466,-1019.75 385.0534,-1019.75 366.7442,-1009.2058 366.7442,-994.2942 385.0534,-983.75 410.9466,-983.75 429.2558,-994.2942"/>
<polygon fill="none" stroke="#000000" points="433.2712,-991.9863 433.2712,-1011.5137 412.0238,-1023.75 383.9762,-1023.75 362.7288,-1011.5137 362.7288,-991.9863 383.9762,-979.75 412.0238,-979.75 433.2712,-991.9863"/>
<text text-anchor="middle" x="398" y="-997.55" font-family="Times,serif" font-size="14.00" fill="#000000">share</text>
</g>
<!-- buttonsObservable.mergeAll&#45;&gt;buttonsObservable -->
<g id="edge4" class="edge">
<title>buttonsObservable.mergeAll&#45;&gt;buttonsObservable</title>
<path fill="none" stroke="#000000" d="M398,-1059.7391C398,-1052.041 398,-1042.8129 398,-1034.0061"/>
<polygon fill="#000000" stroke="#000000" points="401.5001,-1033.9782 398,-1023.9782 394.5001,-1033.9782 401.5001,-1033.9782"/>
</g>
<!-- resetFnOb.filter -->
<g id="node6" class="node">
<title>resetFnOb.filter</title>
<polygon fill="none" stroke="#000000" points="117.7981,-933.75 16.2019,-933.75 16.2019,-897.75 117.7981,-897.75 117.7981,-933.75"/>
<text text-anchor="middle" x="67" y="-911.55" font-family="Times,serif" font-size="14.00" fill="#000000">filter(+,&#45;,×,÷,=)</text>
</g>
<!-- buttonsObservable&#45;&gt;resetFnOb.filter -->
<g id="edge5" class="edge">
<title>buttonsObservable&#45;&gt;resetFnOb.filter</title>
<path fill="none" stroke="#000000" d="M362.3722,-999.1622C298.6092,-994.1388 167.7453,-981.9375 126,-963.75 113.4867,-958.2982 101.4594,-949.4233 91.5658,-940.7784"/>
<polygon fill="#000000" stroke="#000000" points="93.8603,-938.1338 84.1202,-933.9646 89.1344,-943.2978 93.8603,-938.1338"/>
</g>
<!-- clearFnOb.filter -->
<g id="node8" class="node">
<title>clearFnOb.filter</title>
<polygon fill="none" stroke="#000000" points="196.6036,-933.75 135.3964,-933.75 135.3964,-897.75 196.6036,-897.75 196.6036,-933.75"/>
<text text-anchor="middle" x="166" y="-911.55" font-family="Times,serif" font-size="14.00" fill="#000000">filter(C)</text>
</g>
<!-- buttonsObservable&#45;&gt;clearFnOb.filter -->
<g id="edge7" class="edge">
<title>buttonsObservable&#45;&gt;clearFnOb.filter</title>
<path fill="none" stroke="#000000" d="M362.8268,-997.7296C314.6472,-991.7356 231.1196,-979.4581 205,-963.75 196.122,-958.4109 188.3963,-950.278 182.2153,-942.2157"/>
<polygon fill="#000000" stroke="#000000" points="184.9947,-940.0845 176.3497,-933.9595 179.2882,-944.1387 184.9947,-940.0845"/>
</g>
<!-- percentFnOb.filter -->
<g id="node10" class="node">
<title>percentFnOb.filter</title>
<polygon fill="none" stroke="#000000" points="277.9292,-933.75 214.0708,-933.75 214.0708,-897.75 277.9292,-897.75 277.9292,-933.75"/>
<text text-anchor="middle" x="246" y="-911.55" font-family="Times,serif" font-size="14.00" fill="#000000">filter(%)</text>
</g>
<!-- buttonsObservable&#45;&gt;percentFnOb.filter -->
<g id="edge9" class="edge">
<title>buttonsObservable&#45;&gt;percentFnOb.filter</title>
<path fill="none" stroke="#000000" d="M362.6751,-995.0088C339.415,-989.3624 309.1073,-979.6121 286,-963.75 277.5934,-957.9792 269.9673,-949.9747 263.682,-942.1549"/>
<polygon fill="#000000" stroke="#000000" points="266.2343,-939.7269 257.4145,-933.8564 260.6485,-943.9457 266.2343,-939.7269"/>
</g>
<!-- pointFnOb.filter -->
<g id="node12" class="node">
<title>pointFnOb.filter</title>
<polygon fill="none" stroke="#000000" points="350.7663,-933.75 295.2337,-933.75 295.2337,-897.75 350.7663,-897.75 350.7663,-933.75"/>
<text text-anchor="middle" x="323" y="-911.55" font-family="Times,serif" font-size="14.00" fill="#000000">filter(.)</text>
</g>
<!-- buttonsObservable&#45;&gt;pointFnOb.filter -->
<g id="edge11" class="edge">
<title>buttonsObservable&#45;&gt;pointFnOb.filter</title>
<path fill="none" stroke="#000000" d="M377.5586,-982.9894C371.3924,-977.0283 364.7409,-970.2832 359,-963.75 353.0695,-957.0011 347.0487,-949.3512 341.6717,-942.1736"/>
<polygon fill="#000000" stroke="#000000" points="344.4415,-940.0322 335.6992,-934.0469 338.8009,-944.1776 344.4415,-940.0322"/>
</g>
<!-- signFnOb.filter -->
<g id="node14" class="node">
<title>signFnOb.filter</title>
<polygon fill="none" stroke="#000000" points="427.9509,-933.75 368.0491,-933.75 368.0491,-897.75 427.9509,-897.75 427.9509,-933.75"/>
<text text-anchor="middle" x="398" y="-911.55" font-family="Times,serif" font-size="14.00" fill="#000000">filter(±)</text>
</g>
<!-- buttonsObservable&#45;&gt;signFnOb.filter -->
<g id="edge13" class="edge">
<title>buttonsObservable&#45;&gt;signFnOb.filter</title>
<path fill="none" stroke="#000000" d="M398,-979.6029C398,-968.7052 398,-955.4499 398,-943.8467"/>
<polygon fill="#000000" stroke="#000000" points="401.5001,-943.7702 398,-933.7702 394.5001,-943.7703 401.5001,-943.7702"/>
</g>
<!-- numberFnOb.filter -->
<g id="node16" class="node">
<title>numberFnOb.filter</title>
<polygon fill="none" stroke="#000000" points="516.429,-933.75 445.571,-933.75 445.571,-897.75 516.429,-897.75 516.429,-933.75"/>
<text text-anchor="middle" x="481" y="-911.55" font-family="Times,serif" font-size="14.00" fill="#000000">filter(0&#45;9)</text>
</g>
<!-- buttonsObservable&#45;&gt;numberFnOb.filter -->
<g id="edge15" class="edge">
<title>buttonsObservable&#45;&gt;numberFnOb.filter</title>
<path fill="none" stroke="#000000" d="M418.0542,-982.6318C424.2046,-976.6563 430.9446,-969.9928 437,-963.75 443.9363,-956.5991 451.3111,-948.6834 458.0006,-941.3769"/>
<polygon fill="#000000" stroke="#000000" points="460.7964,-943.5048 464.9372,-933.7526 455.6187,-938.794 460.7964,-943.5048"/>
</g>
<!-- enter.filter -->
<g id="node23" class="node">
<title>enter.filter</title>
<polygon fill="none" stroke="#000000" points="610.6621,-502.5 551.3379,-502.5 551.3379,-466.5 610.6621,-466.5 610.6621,-502.5"/>
<text text-anchor="middle" x="581" y="-480.3" font-family="Times,serif" font-size="14.00" fill="#000000">filter(=)</text>
</g>
<!-- buttonsObservable&#45;&gt;enter.filter -->
<g id="edge27" class="edge">
<title>buttonsObservable&#45;&gt;enter.filter</title>
<path fill="none" stroke="#000000" d="M433.3387,-995.5315C467.1837,-988.8743 514.976,-977.4046 528,-963.75 565.8704,-924.046 557,-898.6186 557,-843.75 557,-843.75 557,-843.75 557,-664.125 557,-610.2365 567.7436,-548.0487 574.8545,-512.7905"/>
<polygon fill="#000000" stroke="#000000" points="578.3327,-513.2532 576.9287,-502.7518 571.4775,-511.8367 578.3327,-513.2532"/>
</g>
<!-- clear.filter -->
<g id="node25" class="node">
<title>clear.filter</title>
<polygon fill="none" stroke="#000000" points="695.6036,-502.5 634.3964,-502.5 634.3964,-466.5 695.6036,-466.5 695.6036,-502.5"/>
<text text-anchor="middle" x="665" y="-480.3" font-family="Times,serif" font-size="14.00" fill="#000000">filter(C)</text>
</g>
<!-- buttonsObservable&#45;&gt;clear.filter -->
<g id="edge29" class="edge">
<title>buttonsObservable&#45;&gt;clear.filter</title>
<path fill="none" stroke="#000000" d="M433.3116,-996.7589C474.0571,-990.4157 537.9082,-978.4975 557,-963.75 604.8352,-926.7996 621,-904.1944 621,-843.75 621,-843.75 621,-843.75 621,-664.125 621,-608.8949 640.8668,-546.7847 653.9014,-511.9779"/>
<polygon fill="#000000" stroke="#000000" points="657.2228,-513.0916 657.536,-502.5014 650.687,-510.5848 657.2228,-513.0916"/>
</g>
<!-- operator.filter -->
<g id="node27" class="node">
<title>operator.filter</title>
<polygon fill="none" stroke="#000000" points="807.4032,-502.5 716.5968,-502.5 716.5968,-466.5 807.4032,-466.5 807.4032,-502.5"/>
<text text-anchor="middle" x="762" y="-480.3" font-family="Times,serif" font-size="14.00" fill="#000000">filter(+,&#45;,×,÷)</text>
</g>
<!-- buttonsObservable&#45;&gt;operator.filter -->
<g id="edge31" class="edge">
<title>buttonsObservable&#45;&gt;operator.filter</title>
<path fill="none" stroke="#000000" d="M433.5167,-997.9913C483.6911,-992.1931 572.3063,-980.0135 600,-963.75 659.8647,-928.5936 700,-913.1744 700,-843.75 700,-843.75 700,-843.75 700,-664.125 700,-607.4333 727.937,-545.9135 746.3047,-511.5926"/>
<polygon fill="#000000" stroke="#000000" points="749.4633,-513.1116 751.2004,-502.6602 743.3248,-509.7472 749.4633,-513.1116"/>
</g>
<!-- resetFnOb -->
<g id="node7" class="node">
<title>resetFnOb</title>
<polygon fill="none" stroke="#000000" points="107.1787,-861.75 52.8213,-861.75 52.8213,-825.75 107.1787,-825.75 107.1787,-861.75"/>
<text text-anchor="middle" x="80" y="-839.55" font-family="Times,serif" font-size="14.00" fill="#000000">mapTo</text>
</g>
<!-- resetFnOb.filter&#45;&gt;resetFnOb -->
<g id="edge6" class="edge">
<title>resetFnOb.filter&#45;&gt;resetFnOb</title>
<path fill="none" stroke="#000000" d="M70.2804,-897.5814C71.6708,-889.881 73.3241,-880.7243 74.8692,-872.1666"/>
<polygon fill="#000000" stroke="#000000" points="78.3428,-872.6261 76.6754,-862.1633 71.4542,-871.3822 78.3428,-872.6261"/>
</g>
<!-- operandObservable.merge -->
<g id="node18" class="node">
<title>operandObservable.merge</title>
<ellipse fill="none" stroke="#000000" cx="323" cy="-771.75" rx="32.0942" ry="18"/>
<text text-anchor="middle" x="323" y="-767.55" font-family="Times,serif" font-size="14.00" fill="#000000">merge</text>
</g>
<!-- resetFnOb&#45;&gt;operandObservable.merge -->
<g id="edge17" class="edge">
<title>resetFnOb&#45;&gt;operandObservable.merge</title>
<path fill="none" stroke="#000000" stroke-dasharray="5,2" d="M107.4218,-834.1428C115.621,-831.3499 124.6504,-828.3526 133,-825.75 184.9923,-809.5441 245.5957,-792.6639 284.1183,-782.1826"/>
<polygon fill="#000000" stroke="#000000" points="285.1597,-785.5267 293.8948,-779.531 283.3273,-778.7708 285.1597,-785.5267"/>
</g>
<!-- clearFnOb -->
<g id="node9" class="node">
<title>clearFnOb</title>
<polygon fill="none" stroke="#000000" points="196.1787,-861.75 141.8213,-861.75 141.8213,-825.75 196.1787,-825.75 196.1787,-861.75"/>
<text text-anchor="middle" x="169" y="-839.55" font-family="Times,serif" font-size="14.00" fill="#000000">mapTo</text>
</g>
<!-- clearFnOb.filter&#45;&gt;clearFnOb -->
<g id="edge8" class="edge">
<title>clearFnOb.filter&#45;&gt;clearFnOb</title>
<path fill="none" stroke="#000000" d="M166.757,-897.5814C167.0779,-889.881 167.4594,-880.7243 167.816,-872.1666"/>
<polygon fill="#000000" stroke="#000000" points="171.3133,-872.3003 168.2328,-862.1633 164.3194,-872.0089 171.3133,-872.3003"/>
</g>
<!-- clearFnOb&#45;&gt;operandObservable.merge -->
<g id="edge18" class="edge">
<title>clearFnOb&#45;&gt;operandObservable.merge</title>
<path fill="none" stroke="#000000" stroke-dasharray="5,2" d="M196.5321,-830.8778C222.3806,-818.7928 261.1267,-800.6778 288.9159,-787.6854"/>
<polygon fill="#000000" stroke="#000000" points="290.6728,-790.7277 298.2492,-783.3218 287.708,-784.3866 290.6728,-790.7277"/>
</g>
<!-- percentFnOb -->
<g id="node11" class="node">
<title>percentFnOb</title>
<polygon fill="none" stroke="#000000" points="275.1787,-861.75 220.8213,-861.75 220.8213,-825.75 275.1787,-825.75 275.1787,-861.75"/>
<text text-anchor="middle" x="248" y="-839.55" font-family="Times,serif" font-size="14.00" fill="#000000">mapTo</text>
</g>
<!-- percentFnOb.filter&#45;&gt;percentFnOb -->
<g id="edge10" class="edge">
<title>percentFnOb.filter&#45;&gt;percentFnOb</title>
<path fill="none" stroke="#000000" d="M246.5047,-897.5814C246.7186,-889.881 246.9729,-880.7243 247.2106,-872.1666"/>
<polygon fill="#000000" stroke="#000000" points="250.7094,-872.2566 247.4885,-862.1633 243.7121,-872.0622 250.7094,-872.2566"/>
</g>
<!-- percentFnOb&#45;&gt;operandObservable.merge -->
<g id="edge19" class="edge">
<title>percentFnOb&#45;&gt;operandObservable.merge</title>
<path fill="none" stroke="#000000" stroke-dasharray="5,2" d="M266.9257,-825.5814C276.7031,-816.1951 288.7342,-804.6451 299.1421,-794.6536"/>
<polygon fill="#000000" stroke="#000000" points="301.5883,-797.157 306.3783,-787.7068 296.7406,-792.1073 301.5883,-797.157"/>
</g>
<!-- pointFnOb -->
<g id="node13" class="node">
<title>pointFnOb</title>
<polygon fill="none" stroke="#000000" points="350.1787,-861.75 295.8213,-861.75 295.8213,-825.75 350.1787,-825.75 350.1787,-861.75"/>
<text text-anchor="middle" x="323" y="-839.55" font-family="Times,serif" font-size="14.00" fill="#000000">mapTo</text>
</g>
<!-- pointFnOb.filter&#45;&gt;pointFnOb -->
<g id="edge12" class="edge">
<title>pointFnOb.filter&#45;&gt;pointFnOb</title>
<path fill="none" stroke="#000000" d="M323,-897.5814C323,-889.881 323,-880.7243 323,-872.1666"/>
<polygon fill="#000000" stroke="#000000" points="326.5001,-872.1632 323,-862.1633 319.5001,-872.1633 326.5001,-872.1632"/>
</g>
<!-- pointFnOb&#45;&gt;operandObservable.merge -->
<g id="edge20" class="edge">
<title>pointFnOb&#45;&gt;operandObservable.merge</title>
<path fill="none" stroke="#000000" stroke-dasharray="5,2" d="M323,-825.5814C323,-817.881 323,-808.7243 323,-800.1666"/>
<polygon fill="#000000" stroke="#000000" points="326.5001,-800.1632 323,-790.1633 319.5001,-800.1633 326.5001,-800.1632"/>
</g>
<!-- signFnOb -->
<g id="node15" class="node">
<title>signFnOb</title>
<polygon fill="none" stroke="#000000" points="424.1787,-861.75 369.8213,-861.75 369.8213,-825.75 424.1787,-825.75 424.1787,-861.75"/>
<text text-anchor="middle" x="397" y="-839.55" font-family="Times,serif" font-size="14.00" fill="#000000">mapTo</text>
</g>
<!-- signFnOb.filter&#45;&gt;signFnOb -->
<g id="edge14" class="edge">
<title>signFnOb.filter&#45;&gt;signFnOb</title>
<path fill="none" stroke="#000000" d="M397.7477,-897.5814C397.6407,-889.881 397.5135,-880.7243 397.3947,-872.1666"/>
<polygon fill="#000000" stroke="#000000" points="400.8944,-872.1137 397.2557,-862.1633 393.8951,-872.2109 400.8944,-872.1137"/>
</g>
<!-- signFnOb&#45;&gt;operandObservable.merge -->
<g id="edge21" class="edge">
<title>signFnOb&#45;&gt;operandObservable.merge</title>
<path fill="none" stroke="#000000" stroke-dasharray="5,2" d="M378.3267,-825.5814C368.7733,-816.2862 357.0392,-804.8692 346.8393,-794.945"/>
<polygon fill="#000000" stroke="#000000" points="349.0081,-792.1718 339.4,-787.7068 344.1266,-797.1889 349.0081,-792.1718"/>
</g>
<!-- numberFnOb -->
<g id="node17" class="node">
<title>numberFnOb</title>
<polygon fill="none" stroke="#000000" points="502,-861.75 448,-861.75 448,-825.75 502,-825.75 502,-861.75"/>
<text text-anchor="middle" x="475" y="-839.55" font-family="Times,serif" font-size="14.00" fill="#000000">map</text>
</g>
<!-- numberFnOb.filter&#45;&gt;numberFnOb -->
<g id="edge16" class="edge">
<title>numberFnOb.filter&#45;&gt;numberFnOb</title>
<path fill="none" stroke="#000000" d="M479.4859,-897.5814C478.8442,-889.881 478.0812,-880.7243 477.3681,-872.1666"/>
<polygon fill="#000000" stroke="#000000" points="480.8529,-871.838 476.5344,-862.1633 473.8771,-872.4194 480.8529,-871.838"/>
</g>
<!-- numberFnOb&#45;&gt;operandObservable.merge -->
<g id="edge22" class="edge">
<title>numberFnOb&#45;&gt;operandObservable.merge</title>
<path fill="none" stroke="#000000" stroke-dasharray="5,2" d="M447.8254,-830.8778C422.4654,-818.8652 384.5273,-800.8945 357.1353,-787.9194"/>
<polygon fill="#000000" stroke="#000000" points="358.4599,-784.674 347.9242,-783.5562 355.4633,-791.0002 358.4599,-784.674"/>
</g>
<!-- operandObservable.scan -->
<g id="node19" class="node">
<title>operandObservable.scan</title>
<path fill="none" stroke="#000000" d="M440.7073,-708.1025C440.7073,-713.495 421.5652,-717.8753 398,-717.8753 374.4348,-717.8753 355.2927,-713.495 355.2927,-708.1025 355.2927,-708.1025 355.2927,-620.1475 355.2927,-620.1475 355.2927,-614.755 374.4348,-610.3747 398,-610.3747 421.5652,-610.3747 440.7073,-614.755 440.7073,-620.1475 440.7073,-620.1475 440.7073,-708.1025 440.7073,-708.1025"/>
<path fill="none" stroke="#000000" d="M440.7073,-708.1025C440.7073,-702.71 421.5652,-698.3297 398,-698.3297 374.4348,-698.3297 355.2927,-702.71 355.2927,-708.1025"/>
<text text-anchor="middle" x="398" y="-687.925" font-family="Times,serif" font-size="14.00" fill="#000000">scan</text>
<text text-anchor="start" x="363.3965" y="-673.925" font-family="Times,serif" font-size="14.00" fill="#000000">&#45;inputMode</text>
<text text-anchor="start" x="363.3965" y="-659.925" font-family="Times,serif" font-size="14.00" fill="#000000">&#45;isMinus</text>
<text text-anchor="start" x="363.3965" y="-645.925" font-family="Times,serif" font-size="14.00" fill="#000000">&#45;valueString</text>
<text text-anchor="start" x="363.3965" y="-631.925" font-family="Times,serif" font-size="14.00" fill="#000000">&#45;propagate</text>
</g>
<!-- operandObservable.merge&#45;&gt;operandObservable.scan -->
<g id="edge23" class="edge">
<title>operandObservable.merge&#45;&gt;operandObservable.scan</title>
<path fill="none" stroke="#000000" d="M334.7188,-754.9336C340.7524,-746.2753 348.512,-735.1403 356.5164,-723.6539"/>
<polygon fill="#000000" stroke="#000000" points="359.5211,-725.4639 362.367,-715.2584 353.7781,-721.4617 359.5211,-725.4639"/>
</g>
<!-- operandObservable.do -->
<g id="node20" class="node">
<title>operandObservable.do</title>
<ellipse fill="none" stroke="#000000" cx="418" cy="-556.5" rx="27" ry="18"/>
<text text-anchor="middle" x="418" y="-552.3" font-family="Times,serif" font-size="14.00" fill="#000000">do</text>
</g>
<!-- operandObservable.scan&#45;&gt;operandObservable.do -->
<g id="edge24" class="edge">
<title>operandObservable.scan&#45;&gt;operandObservable.do</title>
<path fill="none" stroke="#000000" d="M408,-610.3125C409.6382,-601.497 411.2764,-592.6815 412.7387,-584.8124"/>
<polygon fill="#000000" stroke="#000000" points="416.2213,-585.2283 414.6073,-574.7571 409.3391,-583.9493 416.2213,-585.2283"/>
</g>
<!-- operandObservable -->
<g id="node21" class="node">
<title>operandObservable</title>
<polygon fill="none" stroke="#000000" points="496.3965,-502.5 419.6035,-502.5 419.6035,-466.5 496.3965,-466.5 496.3965,-502.5"/>
<text text-anchor="middle" x="458" y="-480.3" font-family="Times,serif" font-size="14.00" fill="#000000">mergeMap</text>
</g>
<!-- operandObservable.do&#45;&gt;operandObservable -->
<g id="edge25" class="edge">
<title>operandObservable.do&#45;&gt;operandObservable</title>
<path fill="none" stroke="#000000" d="M427.4794,-539.437C432.0884,-531.1409 437.7394,-520.969 442.9207,-511.6428"/>
<polygon fill="#000000" stroke="#000000" points="446.0924,-513.1405 447.8894,-502.6992 439.9733,-509.741 446.0924,-513.1405"/>
</g>
<!-- operand -->
<g id="node22" class="node">
<title>operand</title>
<polygon fill="none" stroke="#000000" points="594,-430.5 540,-430.5 540,-394.5 594,-394.5 594,-430.5"/>
<text text-anchor="middle" x="567" y="-408.3" font-family="Times,serif" font-size="14.00" fill="#000000">map</text>
</g>
<!-- operandObservable&#45;&gt;operand -->
<g id="edge26" class="edge">
<title>operandObservable&#45;&gt;operand</title>
<path fill="none" stroke="#000000" d="M485.5053,-466.3314C499.4234,-457.1377 516.4839,-445.8684 531.3921,-436.0208"/>
<polygon fill="#000000" stroke="#000000" points="533.4662,-438.8455 539.8811,-430.4134 529.608,-433.0047 533.4662,-438.8455"/>
</g>
<!-- subscribe.merge -->
<g id="node30" class="node">
<title>subscribe.merge</title>
<ellipse fill="none" stroke="#000000" cx="675" cy="-340.5" rx="32.0942" ry="18"/>
<text text-anchor="middle" x="675" y="-336.3" font-family="Times,serif" font-size="14.00" fill="#000000">merge</text>
</g>
<!-- operand&#45;&gt;subscribe.merge -->
<g id="edge33" class="edge">
<title>operand&#45;&gt;subscribe.merge</title>
<path fill="none" stroke="#000000" stroke-dasharray="5,2" d="M594.253,-394.3314C609.9649,-383.8567 629.7186,-370.6876 645.755,-359.9967"/>
<polygon fill="#000000" stroke="#000000" points="647.8534,-362.8043 654.2325,-354.345 643.9705,-356.9799 647.8534,-362.8043"/>
</g>
<!-- enter -->
<g id="node24" class="node">
<title>enter</title>
<polygon fill="none" stroke="#000000" points="666,-430.5 612,-430.5 612,-394.5 666,-394.5 666,-430.5"/>
<text text-anchor="middle" x="639" y="-408.3" font-family="Times,serif" font-size="14.00" fill="#000000">map</text>
</g>
<!-- enter.filter&#45;&gt;enter -->
<g id="edge28" class="edge">
<title>enter.filter&#45;&gt;enter</title>
<path fill="none" stroke="#000000" d="M595.6358,-466.3314C602.3161,-458.0386 610.3568,-448.057 617.6904,-438.9533"/>
<polygon fill="#000000" stroke="#000000" points="620.6194,-440.8965 624.1671,-430.9133 615.1681,-436.5052 620.6194,-440.8965"/>
</g>
<!-- enter&#45;&gt;subscribe.merge -->
<g id="edge34" class="edge">
<title>enter&#45;&gt;subscribe.merge</title>
<path fill="none" stroke="#000000" stroke-dasharray="5,2" d="M648.0843,-394.3314C652.2274,-386.0451 657.2137,-376.0727 661.7626,-366.9748"/>
<polygon fill="#000000" stroke="#000000" points="664.9495,-368.4273 666.2911,-357.9177 658.6885,-365.2967 664.9495,-368.4273"/>
</g>
<!-- clear -->
<g id="node26" class="node">
<title>clear</title>
<polygon fill="none" stroke="#000000" points="738,-430.5 684,-430.5 684,-394.5 738,-394.5 738,-430.5"/>
<text text-anchor="middle" x="711" y="-408.3" font-family="Times,serif" font-size="14.00" fill="#000000">map</text>
</g>
<!-- clear.filter&#45;&gt;clear -->
<g id="edge30" class="edge">
<title>clear.filter&#45;&gt;clear</title>
<path fill="none" stroke="#000000" d="M676.6077,-466.3314C681.7978,-458.2079 688.0232,-448.4637 693.7425,-439.5118"/>
<polygon fill="#000000" stroke="#000000" points="696.8015,-441.2246 699.236,-430.9133 690.9026,-437.4559 696.8015,-441.2246"/>
</g>
<!-- clear&#45;&gt;subscribe.merge -->
<g id="edge35" class="edge">
<title>clear&#45;&gt;subscribe.merge</title>
<path fill="none" stroke="#000000" stroke-dasharray="5,2" d="M701.9157,-394.3314C697.7726,-386.0451 692.7863,-376.0727 688.2374,-366.9748"/>
<polygon fill="#000000" stroke="#000000" points="691.3115,-365.2967 683.7089,-357.9177 685.0505,-368.4273 691.3115,-365.2967"/>
</g>
<!-- operator -->
<g id="node28" class="node">
<title>operator</title>
<polygon fill="none" stroke="#000000" points="810,-430.5 756,-430.5 756,-394.5 810,-394.5 810,-430.5"/>
<text text-anchor="middle" x="783" y="-408.3" font-family="Times,serif" font-size="14.00" fill="#000000">map</text>
</g>
<!-- operator.filter&#45;&gt;operator -->
<g id="edge32" class="edge">
<title>operator.filter&#45;&gt;operator</title>
<path fill="none" stroke="#000000" d="M767.2992,-466.3314C769.5698,-458.5463 772.2746,-449.2729 774.794,-440.6347"/>
<polygon fill="#000000" stroke="#000000" points="778.1894,-441.4933 777.6295,-430.9133 771.4694,-439.5332 778.1894,-441.4933"/>
</g>
<!-- operator&#45;&gt;subscribe.merge -->
<g id="edge36" class="edge">
<title>operator&#45;&gt;subscribe.merge</title>
<path fill="none" stroke="#000000" stroke-dasharray="5,2" d="M755.747,-394.3314C740.0351,-383.8567 720.2814,-370.6876 704.245,-359.9967"/>
<polygon fill="#000000" stroke="#000000" points="706.0295,-356.9799 695.7675,-354.345 702.1466,-362.8043 706.0295,-356.9799"/>
</g>
<!-- subscribe.scan -->
<g id="node29" class="node">
<title>subscribe.scan</title>
<path fill="none" stroke="#000000" d="M721.2004,-274.7963C721.2004,-281.1168 700.4926,-286.251 675,-286.251 649.5074,-286.251 628.7996,-281.1168 628.7996,-274.7963 628.7996,-274.7963 628.7996,-171.7037 628.7996,-171.7037 628.7996,-165.3832 649.5074,-160.249 675,-160.249 700.4926,-160.249 721.2004,-165.3832 721.2004,-171.7037 721.2004,-171.7037 721.2004,-274.7963 721.2004,-274.7963"/>
<path fill="none" stroke="#000000" d="M721.2004,-274.7963C721.2004,-268.4757 700.4926,-263.3415 675,-263.3415 649.5074,-263.3415 628.7996,-268.4757 628.7996,-274.7963"/>
<text text-anchor="middle" x="675" y="-254.05" font-family="Times,serif" font-size="14.00" fill="#000000">scan</text>
<text text-anchor="start" x="636.8999" y="-240.05" font-family="Times,serif" font-size="14.00" fill="#000000">&#45;step</text>
<text text-anchor="start" x="636.8999" y="-226.05" font-family="Times,serif" font-size="14.00" fill="#000000">&#45;first</text>
<text text-anchor="start" x="636.8999" y="-212.05" font-family="Times,serif" font-size="14.00" fill="#000000">&#45;second</text>
<text text-anchor="start" x="636.8999" y="-198.05" font-family="Times,serif" font-size="14.00" fill="#000000">&#45;operator</text>
<text text-anchor="start" x="636.8999" y="-184.05" font-family="Times,serif" font-size="14.00" fill="#000000">&#45;skipOperand</text>
</g>
<!-- subscribe.startWith -->
<g id="node31" class="node">
<title>subscribe.startWith</title>
<polygon fill="none" stroke="#000000" points="708.5445,-124 641.4555,-124 641.4555,-88 708.5445,-88 708.5445,-124"/>
<text text-anchor="middle" x="675" y="-101.8" font-family="Times,serif" font-size="14.00" fill="#000000">startWith</text>
</g>
<!-- subscribe.scan&#45;&gt;subscribe.startWith -->
<g id="edge38" class="edge">
<title>subscribe.scan&#45;&gt;subscribe.startWith</title>
<path fill="none" stroke="#000000" d="M675,-160.1633C675,-151.0706 675,-142.1219 675,-134.1989"/>
<polygon fill="#000000" stroke="#000000" points="678.5001,-134.1134 675,-124.1134 671.5001,-134.1135 678.5001,-134.1134"/>
</g>
<!-- subscribe.merge&#45;&gt;subscribe.scan -->
<g id="edge37" class="edge">
<title>subscribe.merge&#45;&gt;subscribe.scan</title>
<path fill="none" stroke="#000000" d="M675,-322.4366C675,-315.0945 675,-306.0875 675,-296.5249"/>
<polygon fill="#000000" stroke="#000000" points="678.5001,-296.405 675,-286.405 671.5001,-296.405 678.5001,-296.405"/>
</g>
<!-- subscribe.subscribe -->
<g id="node32" class="node">
<title>subscribe.subscribe</title>
<ellipse fill="none" stroke="#000000" cx="675" cy="-34" rx="43.5146" ry="18"/>
<text text-anchor="middle" x="675" y="-29.8" font-family="Times,serif" font-size="14.00" fill="#000000">subscribe</text>
</g>
<!-- subscribe.startWith&#45;&gt;subscribe.subscribe -->
<g id="edge39" class="edge">
<title>subscribe.startWith&#45;&gt;subscribe.subscribe</title>
<path fill="none" stroke="#000000" d="M675,-87.8314C675,-80.131 675,-70.9743 675,-62.4166"/>
<polygon fill="#000000" stroke="#000000" points="678.5001,-62.4132 675,-52.4133 671.5001,-62.4133 678.5001,-62.4132"/>
</g>
</g>
</svg>
